<svg width="206" height="104" viewBox="0 0 206 104" fill="none" xmlns="http://www.w3.org/2000/svg">
<path d="M19.4297 45H3.77344V10.4531H20.5547C24.7891 10.5156 27.7891 11.7422 29.5547 14.1328C30.6172 15.6016 31.1484 17.3594 31.1484 19.4062C31.1484 21.5156 30.6172 23.2109 29.5547 24.4922C28.9609 25.2109 28.0859 25.8672 26.9297 26.4609C28.6953 27.1016 30.0234 28.1172 30.9141 29.5078C31.8203 30.8984 32.2734 32.5859 32.2734 34.5703C32.2734 36.6172 31.7578 38.4531 30.7266 40.0781C30.0703 41.1562 29.25 42.0625 28.2656 42.7969C27.1562 43.6406 25.8438 44.2188 24.3281 44.5312C22.8281 44.8438 21.1953 45 19.4297 45ZM19.2656 29.7891H10.6641V39H19.1484C20.6641 39 21.8438 38.7969 22.6875 38.3906C24.2188 37.6406 24.9844 36.2031 24.9844 34.0781C24.9844 32.2812 24.2422 31.0469 22.7578 30.375C21.9297 30 20.7656 29.8047 19.2656 29.7891ZM22.8516 23.2031C23.7891 22.6406 24.2578 21.6328 24.2578 20.1797C24.2578 18.5703 23.6328 17.5078 22.3828 16.9922C21.3047 16.6328 19.9297 16.4531 18.2578 16.4531H10.6641V24.0703H19.1484C20.6641 24.0703 21.8984 23.7812 22.8516 23.2031ZM37.9453 10.4531H44.625V45H37.9453V10.4531ZM72.4688 22.6875C74.625 25.3906 75.7031 28.5859 75.7031 32.2734C75.7031 36.0234 74.625 39.2344 72.4688 41.9062C70.3125 44.5625 67.0391 45.8906 62.6484 45.8906C58.2578 45.8906 54.9844 44.5625 52.8281 41.9062C50.6719 39.2344 49.5938 36.0234 49.5938 32.2734C49.5938 28.5859 50.6719 25.3906 52.8281 22.6875C54.9844 19.9844 58.2578 18.6328 62.6484 18.6328C67.0391 18.6328 70.3125 19.9844 72.4688 22.6875ZM62.625 24.2812C60.6719 24.2812 59.1641 24.9766 58.1016 26.3672C57.0547 27.7422 56.5312 29.7109 56.5312 32.2734C56.5312 34.8359 57.0547 36.8125 58.1016 38.2031C59.1641 39.5938 60.6719 40.2891 62.625 40.2891C64.5781 40.2891 66.0781 39.5938 67.125 38.2031C68.1719 36.8125 68.6953 34.8359 68.6953 32.2734C68.6953 29.7109 68.1719 27.7422 67.125 26.3672C66.0781 24.9766 64.5781 24.2812 62.625 24.2812ZM87.7266 49.4766C88.4453 50.0859 89.6562 50.3906 91.3594 50.3906C93.7656 50.3906 95.375 49.5859 96.1875 47.9766C96.7188 46.9453 96.9844 45.2109 96.9844 42.7734V41.1328C96.3438 42.2266 95.6562 43.0469 94.9219 43.5938C93.5938 44.6094 91.8672 45.1172 89.7422 45.1172C86.4609 45.1172 83.8359 43.9688 81.8672 41.6719C79.9141 39.3594 78.9375 36.2344 78.9375 32.2969C78.9375 28.5 79.8828 25.3125 81.7734 22.7344C83.6641 20.1406 86.3438 18.8438 89.8125 18.8438C91.0938 18.8438 92.2109 19.0391 93.1641 19.4297C94.7891 20.1016 96.1016 21.3359 97.1016 23.1328V19.4531H103.594V43.6875C103.594 46.9844 103.039 49.4688 101.93 51.1406C100.023 54.0156 96.3672 55.4531 90.9609 55.4531C87.6953 55.4531 85.0312 54.8125 82.9688 53.5312C80.9062 52.25 79.7656 50.3359 79.5469 47.7891H86.8125C87 48.5703 87.3047 49.1328 87.7266 49.4766ZM86.6016 36.2812C87.5078 38.4375 89.1328 39.5156 91.4766 39.5156C93.0391 39.5156 94.3594 38.9297 95.4375 37.7578C96.5156 36.5703 97.0547 34.6875 97.0547 32.1094C97.0547 29.6875 96.5391 27.8438 95.5078 26.5781C94.4922 25.3125 93.125 24.6797 91.4062 24.6797C89.0625 24.6797 87.4453 25.7812 86.5547 27.9844C86.0859 29.1562 85.8516 30.6016 85.8516 32.3203C85.8516 33.8047 86.1016 35.125 86.6016 36.2812ZM123.75 10.4531H130.969V38.7891H148.078V45H123.75V10.4531ZM159.422 19.4531V45H152.648V19.4531H159.422ZM159.422 10.2422V16.4062H152.648V10.2422H159.422ZM183.516 20.625C185.516 21.9062 186.664 24.1094 186.961 27.2344H180.281C180.188 26.375 179.945 25.6953 179.555 25.1953C178.82 24.2891 177.57 23.8359 175.805 23.8359C174.352 23.8359 173.312 24.0625 172.688 24.5156C172.078 24.9688 171.773 25.5 171.773 26.1094C171.773 26.875 172.102 27.4297 172.758 27.7734C173.414 28.1328 175.734 28.75 179.719 29.625C182.375 30.25 184.367 31.1953 185.695 32.4609C187.008 33.7422 187.664 35.3438 187.664 37.2656C187.664 39.7969 186.719 41.8672 184.828 43.4766C182.953 45.0703 180.047 45.8672 176.109 45.8672C172.094 45.8672 169.125 45.0234 167.203 43.3359C165.297 41.6328 164.344 39.4688 164.344 36.8438H171.117C171.258 38.0312 171.562 38.875 172.031 39.375C172.859 40.2656 174.391 40.7109 176.625 40.7109C177.938 40.7109 178.977 40.5156 179.742 40.125C180.523 39.7344 180.914 39.1484 180.914 38.3672C180.914 37.6172 180.602 37.0469 179.977 36.6562C179.352 36.2656 177.031 35.5938 173.016 34.6406C170.125 33.9219 168.086 33.0234 166.898 31.9453C165.711 30.8828 165.117 29.3516 165.117 27.3516C165.117 24.9922 166.039 22.9688 167.883 21.2812C169.742 19.5781 172.352 18.7266 175.711 18.7266C178.898 18.7266 181.5 19.3594 183.516 20.625ZM204.328 40.2422V45.2344L201.164 45.3516C198.008 45.4609 195.852 44.9141 194.695 43.7109C193.945 42.9453 193.57 41.7656 193.57 40.1719V24.4453H190.008V19.6875H193.57V12.5625H200.18V19.6875H204.328V24.4453H200.18V37.9453C200.18 38.9922 200.312 39.6484 200.578 39.9141C200.844 40.1641 201.656 40.2891 203.016 40.2891C203.219 40.2891 203.43 40.2891 203.648 40.2891C203.883 40.2734 204.109 40.2578 204.328 40.2422Z" fill="white"/>
<path d="M48.7614 97V82.4545H50.5227V88.9318H58.2784V82.4545H60.0398V97H58.2784V90.4943H50.5227V97H48.7614ZM67.7706 97.2273C66.7857 97.2273 65.9216 96.9929 65.1783 96.5241C64.4396 96.0554 63.862 95.3996 63.4453 94.5568C63.0334 93.714 62.8274 92.7292 62.8274 91.6023C62.8274 90.4659 63.0334 89.474 63.4453 88.6264C63.862 87.7789 64.4396 87.1207 65.1783 86.652C65.9216 86.1832 66.7857 85.9489 67.7706 85.9489C68.7554 85.9489 69.6172 86.1832 70.3558 86.652C71.0992 87.1207 71.6768 87.7789 72.0888 88.6264C72.5054 89.474 72.7138 90.4659 72.7138 91.6023C72.7138 92.7292 72.5054 93.714 72.0888 94.5568C71.6768 95.3996 71.0992 96.0554 70.3558 96.5241C69.6172 96.9929 68.7554 97.2273 67.7706 97.2273ZM67.7706 95.7216C68.5187 95.7216 69.1342 95.5298 69.6172 95.1463C70.1001 94.7628 70.4576 94.2585 70.6896 93.6335C70.9216 93.0085 71.0376 92.3314 71.0376 91.6023C71.0376 90.8731 70.9216 90.1937 70.6896 89.5639C70.4576 88.9342 70.1001 88.4252 69.6172 88.0369C69.1342 87.6487 68.5187 87.4545 67.7706 87.4545C67.0225 87.4545 66.407 87.6487 65.924 88.0369C65.4411 88.4252 65.0836 88.9342 64.8516 89.5639C64.6196 90.1937 64.5036 90.8731 64.5036 91.6023C64.5036 92.3314 64.6196 93.0085 64.8516 93.6335C65.0836 94.2585 65.4411 94.7628 65.924 95.1463C66.407 95.5298 67.0225 95.7216 67.7706 95.7216ZM75.2724 97V86.0909H76.8917V87.7955H77.0337C77.261 87.2131 77.628 86.7609 78.1346 86.4389C78.6412 86.1122 79.2496 85.9489 79.9599 85.9489C80.6796 85.9489 81.2785 86.1122 81.7567 86.4389C82.2397 86.7609 82.6161 87.2131 82.886 87.7955H82.9996C83.279 87.232 83.698 86.7846 84.2567 86.4531C84.8155 86.117 85.4854 85.9489 86.2667 85.9489C87.2421 85.9489 88.0399 86.2543 88.6602 86.8651C89.2804 87.4711 89.5906 88.4157 89.5906 89.6989V97H87.9144V89.6989C87.9144 88.8939 87.6942 88.3187 87.2539 87.973C86.8136 87.6274 86.2951 87.4545 85.6985 87.4545C84.9315 87.4545 84.3372 87.6866 83.9158 88.1506C83.4944 88.6098 83.2837 89.1922 83.2837 89.8977V97H81.5792V89.5284C81.5792 88.9081 81.378 88.4086 80.9755 88.0298C80.573 87.6463 80.0546 87.4545 79.4201 87.4545C78.9845 87.4545 78.5773 87.5705 78.1985 87.8026C77.8245 88.0346 77.5214 88.3565 77.2894 88.7685C77.0621 89.1757 76.9485 89.6468 76.9485 90.1818V97H75.2724ZM97.229 97.2273C96.1779 97.2273 95.2712 96.9953 94.5089 96.5312C93.7513 96.0625 93.1665 95.4091 92.7546 94.571C92.3474 93.7282 92.1438 92.7481 92.1438 91.6307C92.1438 90.5133 92.3474 89.5284 92.7546 88.6761C93.1665 87.8191 93.7395 87.1515 94.4734 86.6733C95.212 86.1903 96.0737 85.9489 97.0586 85.9489C97.6268 85.9489 98.1879 86.0436 98.7418 86.233C99.2958 86.4223 99.8001 86.7301 100.255 87.1562C100.709 87.5777 101.071 88.1364 101.341 88.8324C101.611 89.5284 101.746 90.3854 101.746 91.4034V92.1136H93.337V90.6648H100.042C100.042 90.0492 99.9184 89.5 99.6722 89.017C99.4308 88.5341 99.0851 88.1529 98.6353 87.8736C98.1902 87.5942 97.6647 87.4545 97.0586 87.4545C96.391 87.4545 95.8133 87.6203 95.3256 87.9517C94.8427 88.2784 94.471 88.7045 94.2106 89.2301C93.9502 89.7557 93.82 90.3191 93.82 90.9205V91.8864C93.82 92.7102 93.962 93.4086 94.2461 93.9815C94.5349 94.5497 94.935 94.983 95.4464 95.2812C95.9577 95.5748 96.552 95.7216 97.229 95.7216C97.6694 95.7216 98.0671 95.66 98.4222 95.5369C98.7821 95.4091 99.0922 95.2197 99.3526 94.9688C99.613 94.7131 99.8143 94.3958 99.9563 94.017L101.576 94.4716C101.405 95.0208 101.119 95.5038 100.716 95.9205C100.314 96.3324 99.8166 96.6544 99.2248 96.8864C98.6329 97.1136 97.9677 97.2273 97.229 97.2273Z" fill="white"/>
<path d="M128.761 97V82.4545H133.847C134.86 82.4545 135.696 82.6297 136.354 82.9801C137.012 83.3258 137.502 83.7921 137.824 84.3793C138.146 84.9616 138.307 85.608 138.307 86.3182C138.307 86.9432 138.196 87.4593 137.973 87.8665C137.755 88.2737 137.466 88.5956 137.107 88.8324C136.751 89.0691 136.366 89.2443 135.949 89.358V89.5C136.394 89.5284 136.841 89.6847 137.291 89.9688C137.741 90.2528 138.117 90.66 138.42 91.1903C138.723 91.7206 138.875 92.3693 138.875 93.1364C138.875 93.8655 138.709 94.5213 138.378 95.1037C138.046 95.6861 137.523 96.1477 136.808 96.4886C136.093 96.8295 135.163 97 134.017 97H128.761ZM130.523 95.4375H134.017C135.168 95.4375 135.984 95.215 136.467 94.7699C136.955 94.3201 137.199 93.7756 137.199 93.1364C137.199 92.6439 137.073 92.1894 136.822 91.7727C136.571 91.3513 136.214 91.0152 135.75 90.7642C135.286 90.5085 134.737 90.3807 134.102 90.3807H130.523V95.4375ZM130.523 88.8466H133.79C134.32 88.8466 134.798 88.7424 135.224 88.5341C135.655 88.3258 135.996 88.0322 136.247 87.6534C136.503 87.2746 136.631 86.8295 136.631 86.3182C136.631 85.679 136.408 85.1368 135.963 84.6918C135.518 84.242 134.813 84.017 133.847 84.017H130.523V88.8466ZM143.218 82.4545V97H141.542V82.4545H143.218ZM150.72 97.2273C149.735 97.2273 148.871 96.9929 148.127 96.5241C147.389 96.0554 146.811 95.3996 146.395 94.5568C145.983 93.714 145.777 92.7292 145.777 91.6023C145.777 90.4659 145.983 89.474 146.395 88.6264C146.811 87.7789 147.389 87.1207 148.127 86.652C148.871 86.1832 149.735 85.9489 150.72 85.9489C151.705 85.9489 152.566 86.1832 153.305 86.652C154.048 87.1207 154.626 87.7789 155.038 88.6264C155.455 89.474 155.663 90.4659 155.663 91.6023C155.663 92.7292 155.455 93.714 155.038 94.5568C154.626 95.3996 154.048 96.0554 153.305 96.5241C152.566 96.9929 151.705 97.2273 150.72 97.2273ZM150.72 95.7216C151.468 95.7216 152.083 95.5298 152.566 95.1463C153.049 94.7628 153.407 94.2585 153.639 93.6335C153.871 93.0085 153.987 92.3314 153.987 91.6023C153.987 90.8731 153.871 90.1937 153.639 89.5639C153.407 88.9342 153.049 88.4252 152.566 88.0369C152.083 87.6487 151.468 87.4545 150.72 87.4545C149.972 87.4545 149.356 87.6487 148.873 88.0369C148.39 88.4252 148.033 88.9342 147.801 89.5639C147.569 90.1937 147.453 90.8731 147.453 91.6023C147.453 92.3314 147.569 93.0085 147.801 93.6335C148.033 94.2585 148.39 94.7628 148.873 95.1463C149.356 95.5298 149.972 95.7216 150.72 95.7216ZM162.625 101.318C161.815 101.318 161.119 101.214 160.537 101.006C159.955 100.802 159.469 100.532 159.081 100.196C158.697 99.8646 158.392 99.5095 158.165 99.1307L159.5 98.1932C159.652 98.392 159.843 98.6193 160.075 98.875C160.307 99.1354 160.625 99.3603 161.027 99.5497C161.434 99.7438 161.967 99.8409 162.625 99.8409C163.506 99.8409 164.232 99.6278 164.805 99.2017C165.378 98.7756 165.665 98.108 165.665 97.1989V94.983H165.523C165.4 95.1818 165.224 95.428 164.997 95.7216C164.775 96.0104 164.453 96.2685 164.031 96.4957C163.615 96.7183 163.051 96.8295 162.341 96.8295C161.46 96.8295 160.67 96.6212 159.969 96.2045C159.273 95.7879 158.721 95.1818 158.314 94.3864C157.911 93.5909 157.71 92.625 157.71 91.4886C157.71 90.3712 157.907 89.3982 158.3 88.5696C158.693 87.7363 159.24 87.0923 159.94 86.6378C160.641 86.1785 161.451 85.9489 162.369 85.9489C163.08 85.9489 163.643 86.0672 164.06 86.304C164.481 86.536 164.803 86.8011 165.026 87.0994C165.253 87.393 165.428 87.6345 165.551 87.8239H165.722V86.0909H167.341V97.3125C167.341 98.25 167.128 99.0123 166.702 99.5994C166.28 100.191 165.712 100.625 164.997 100.899C164.287 101.179 163.496 101.318 162.625 101.318ZM162.568 95.3239C163.241 95.3239 163.809 95.17 164.273 94.8622C164.737 94.5545 165.089 94.1117 165.331 93.5341C165.572 92.9564 165.693 92.2652 165.693 91.4602C165.693 90.6742 165.575 89.9806 165.338 89.3793C165.101 88.7779 164.751 88.3068 164.287 87.9659C163.823 87.625 163.25 87.4545 162.568 87.4545C161.858 87.4545 161.266 87.6345 160.793 87.9943C160.324 88.3542 159.971 88.8371 159.734 89.4432C159.502 90.0492 159.386 90.7216 159.386 91.4602C159.386 92.2178 159.505 92.8878 159.741 93.4702C159.983 94.0478 160.338 94.5024 160.807 94.8338C161.28 95.1605 161.867 95.3239 162.568 95.3239Z" fill="#FF9F0D"/>
</svg>
