<svg width="424" height="56" viewBox="0 0 424 56" fill="none" xmlns="http://www.w3.org/2000/svg">
<rect x="0.5" y="0.5" width="423" height="55" stroke="#E0E0E0"/>
<path d="M168 35.5L160.5 28L168 20.5" stroke="#4F4F4F" stroke-width="1.5" stroke-linecap="round" stroke-linejoin="round"/>
<path d="M190.531 27.375C191.188 27.375 191.698 27.2839 192.062 27.1016C192.635 26.8151 192.922 26.2995 192.922 25.5547C192.922 24.8047 192.617 24.2995 192.008 24.0391C191.664 23.8932 191.154 23.8203 190.477 23.8203H187.703V27.375H190.531ZM191.055 32.6719C192.008 32.6719 192.688 32.3958 193.094 31.8438C193.349 31.4948 193.477 31.0729 193.477 30.5781C193.477 29.7448 193.104 29.1771 192.359 28.875C191.964 28.7135 191.44 28.6328 190.789 28.6328H187.703V32.6719H191.055ZM186.18 22.5234H191.109C192.453 22.5234 193.409 22.9245 193.977 23.7266C194.31 24.2005 194.477 24.7474 194.477 25.3672C194.477 26.0911 194.271 26.6849 193.859 27.1484C193.646 27.3932 193.339 27.6172 192.938 27.8203C193.526 28.0443 193.966 28.2969 194.258 28.5781C194.773 29.0781 195.031 29.7682 195.031 30.6484C195.031 31.388 194.799 32.0573 194.336 32.6562C193.643 33.5521 192.542 34 191.031 34H186.18V22.5234ZM197.781 31.7734C197.781 32.1797 197.93 32.5 198.227 32.7344C198.523 32.9688 198.875 33.0859 199.281 33.0859C199.776 33.0859 200.255 32.9714 200.719 32.7422C201.5 32.362 201.891 31.7396 201.891 30.875V29.7422C201.719 29.8516 201.497 29.9427 201.227 30.0156C200.956 30.0885 200.69 30.1406 200.43 30.1719L199.578 30.2812C199.068 30.349 198.685 30.4557 198.43 30.6016C197.997 30.8464 197.781 31.237 197.781 31.7734ZM201.188 28.9297C201.51 28.888 201.727 28.7526 201.836 28.5234C201.898 28.3984 201.93 28.2188 201.93 27.9844C201.93 27.5052 201.758 27.1589 201.414 26.9453C201.076 26.7266 200.589 26.6172 199.953 26.6172C199.219 26.6172 198.698 26.8151 198.391 27.2109C198.219 27.4297 198.107 27.7552 198.055 28.1875H196.742C196.768 27.1562 197.102 26.4401 197.742 26.0391C198.388 25.6328 199.135 25.4297 199.984 25.4297C200.969 25.4297 201.768 25.6172 202.383 25.9922C202.992 26.3672 203.297 26.9505 203.297 27.7422V32.5625C203.297 32.7083 203.326 32.8255 203.383 32.9141C203.445 33.0026 203.573 33.0469 203.766 33.0469C203.828 33.0469 203.898 33.0443 203.977 33.0391C204.055 33.0286 204.138 33.0156 204.227 33V34.0391C204.008 34.1016 203.841 34.1406 203.727 34.1562C203.612 34.1719 203.456 34.1797 203.258 34.1797C202.773 34.1797 202.422 34.0078 202.203 33.6641C202.089 33.4818 202.008 33.224 201.961 32.8906C201.674 33.2656 201.263 33.5911 200.727 33.8672C200.19 34.1432 199.599 34.2812 198.953 34.2812C198.177 34.2812 197.542 34.0469 197.047 33.5781C196.557 33.1042 196.312 32.513 196.312 31.8047C196.312 31.0286 196.555 30.4271 197.039 30C197.523 29.5729 198.159 29.3099 198.945 29.2109L201.188 28.9297ZM208.836 25.3906C209.779 25.3906 210.544 25.6198 211.133 26.0781C211.727 26.5365 212.083 27.3255 212.203 28.4453H210.836C210.753 27.9297 210.562 27.5026 210.266 27.1641C209.969 26.8203 209.492 26.6484 208.836 26.6484C207.94 26.6484 207.299 27.0859 206.914 27.9609C206.664 28.5286 206.539 29.2292 206.539 30.0625C206.539 30.901 206.716 31.6068 207.07 32.1797C207.424 32.7526 207.982 33.0391 208.742 33.0391C209.326 33.0391 209.786 32.862 210.125 32.5078C210.469 32.1484 210.706 31.6589 210.836 31.0391H212.203C212.047 32.1484 211.656 32.9609 211.031 33.4766C210.406 33.987 209.607 34.2422 208.633 34.2422C207.539 34.2422 206.667 33.8438 206.016 33.0469C205.365 32.2448 205.039 31.2448 205.039 30.0469C205.039 28.5781 205.396 27.4349 206.109 26.6172C206.823 25.7995 207.732 25.3906 208.836 25.3906ZM213.578 22.5234H214.93V29.1875L218.539 25.6328H220.336L217.133 28.7656L220.516 34H218.719L216.109 29.7812L214.93 30.8594V34H213.578V22.5234ZM226.344 23.2969H227.766V25.6328H229.102V26.7812H227.766V32.2422C227.766 32.5339 227.865 32.7292 228.062 32.8281C228.172 32.8854 228.354 32.9141 228.609 32.9141C228.677 32.9141 228.75 32.9141 228.828 32.9141C228.906 32.9089 228.997 32.901 229.102 32.8906V34C228.94 34.0469 228.771 34.0807 228.594 34.1016C228.422 34.1224 228.234 34.1328 228.031 34.1328C227.375 34.1328 226.93 33.9661 226.695 33.6328C226.461 33.2943 226.344 32.8568 226.344 32.3203V26.7812H225.211V25.6328H226.344V23.2969ZM233.836 33.0938C234.768 33.0938 235.406 32.7422 235.75 32.0391C236.099 31.3307 236.273 30.5443 236.273 29.6797C236.273 28.8984 236.148 28.263 235.898 27.7734C235.503 27.0026 234.82 26.6172 233.852 26.6172C232.992 26.6172 232.367 26.9453 231.977 27.6016C231.586 28.2578 231.391 29.0495 231.391 29.9766C231.391 30.8672 231.586 31.6094 231.977 32.2031C232.367 32.7969 232.987 33.0938 233.836 33.0938ZM233.891 25.3906C234.969 25.3906 235.88 25.75 236.625 26.4688C237.37 27.1875 237.742 28.2448 237.742 29.6406C237.742 30.9896 237.414 32.1042 236.758 32.9844C236.102 33.8646 235.083 34.3047 233.703 34.3047C232.552 34.3047 231.638 33.9167 230.961 33.1406C230.284 32.3594 229.945 31.3125 229.945 30C229.945 28.5938 230.302 27.474 231.016 26.6406C231.729 25.8073 232.688 25.3906 233.891 25.3906ZM247.102 25.3906C248.044 25.3906 248.81 25.6198 249.398 26.0781C249.992 26.5365 250.349 27.3255 250.469 28.4453H249.102C249.018 27.9297 248.828 27.5026 248.531 27.1641C248.234 26.8203 247.758 26.6484 247.102 26.6484C246.206 26.6484 245.565 27.0859 245.18 27.9609C244.93 28.5286 244.805 29.2292 244.805 30.0625C244.805 30.901 244.982 31.6068 245.336 32.1797C245.69 32.7526 246.247 33.0391 247.008 33.0391C247.591 33.0391 248.052 32.862 248.391 32.5078C248.734 32.1484 248.971 31.6589 249.102 31.0391H250.469C250.312 32.1484 249.922 32.9609 249.297 33.4766C248.672 33.987 247.872 34.2422 246.898 34.2422C245.805 34.2422 244.932 33.8438 244.281 33.0469C243.63 32.2448 243.305 31.2448 243.305 30.0469C243.305 28.5781 243.661 27.4349 244.375 26.6172C245.089 25.7995 245.997 25.3906 247.102 25.3906ZM252.953 31.7734C252.953 32.1797 253.102 32.5 253.398 32.7344C253.695 32.9688 254.047 33.0859 254.453 33.0859C254.948 33.0859 255.427 32.9714 255.891 32.7422C256.672 32.362 257.062 31.7396 257.062 30.875V29.7422C256.891 29.8516 256.669 29.9427 256.398 30.0156C256.128 30.0885 255.862 30.1406 255.602 30.1719L254.75 30.2812C254.24 30.349 253.857 30.4557 253.602 30.6016C253.169 30.8464 252.953 31.237 252.953 31.7734ZM256.359 28.9297C256.682 28.888 256.898 28.7526 257.008 28.5234C257.07 28.3984 257.102 28.2188 257.102 27.9844C257.102 27.5052 256.93 27.1589 256.586 26.9453C256.247 26.7266 255.76 26.6172 255.125 26.6172C254.391 26.6172 253.87 26.8151 253.562 27.2109C253.391 27.4297 253.279 27.7552 253.227 28.1875H251.914C251.94 27.1562 252.273 26.4401 252.914 26.0391C253.56 25.6328 254.307 25.4297 255.156 25.4297C256.141 25.4297 256.94 25.6172 257.555 25.9922C258.164 26.3672 258.469 26.9505 258.469 27.7422V32.5625C258.469 32.7083 258.497 32.8255 258.555 32.9141C258.617 33.0026 258.745 33.0469 258.938 33.0469C259 33.0469 259.07 33.0443 259.148 33.0391C259.227 33.0286 259.31 33.0156 259.398 33V34.0391C259.18 34.1016 259.013 34.1406 258.898 34.1562C258.784 34.1719 258.628 34.1797 258.43 34.1797C257.945 34.1797 257.594 34.0078 257.375 33.6641C257.26 33.4818 257.18 33.224 257.133 32.8906C256.846 33.2656 256.435 33.5911 255.898 33.8672C255.362 34.1432 254.771 34.2812 254.125 34.2812C253.349 34.2812 252.714 34.0469 252.219 33.5781C251.729 33.1042 251.484 32.513 251.484 31.8047C251.484 31.0286 251.727 30.4271 252.211 30C252.695 29.5729 253.331 29.3099 254.117 29.2109L256.359 28.9297ZM260.82 25.6328H262.156V27.0781C262.266 26.7969 262.534 26.4557 262.961 26.0547C263.388 25.6484 263.88 25.4453 264.438 25.4453C264.464 25.4453 264.508 25.4479 264.57 25.4531C264.633 25.4583 264.74 25.4688 264.891 25.4844V26.9688C264.807 26.9531 264.729 26.9427 264.656 26.9375C264.589 26.9323 264.513 26.9297 264.43 26.9297C263.721 26.9297 263.177 27.1589 262.797 27.6172C262.417 28.0703 262.227 28.5938 262.227 29.1875V34H260.82V25.6328ZM266.391 23.2969H267.812V25.6328H269.148V26.7812H267.812V32.2422C267.812 32.5339 267.911 32.7292 268.109 32.8281C268.219 32.8854 268.401 32.9141 268.656 32.9141C268.724 32.9141 268.797 32.9141 268.875 32.9141C268.953 32.9089 269.044 32.901 269.148 32.8906V34C268.987 34.0469 268.818 34.0807 268.641 34.1016C268.469 34.1224 268.281 34.1328 268.078 34.1328C267.422 34.1328 266.977 33.9661 266.742 33.6328C266.508 33.2943 266.391 32.8568 266.391 32.3203V26.7812H265.258V25.6328H266.391V23.2969Z" fill="#4F4F4F"/>
</svg>
