<svg width="424" height="56" viewBox="0 0 424 56" fill="none" xmlns="http://www.w3.org/2000/svg">
<rect width="424" height="56" fill="#FF9F0D"/>
<rect width="424" height="56" fill="#FF9F0D"/>
<path d="M284 20.5L291.5 28L284 35.5" stroke="white" stroke-width="1.5" stroke-linecap="round" stroke-linejoin="round"/>
<path d="M126.367 22.5234H131.531C132.552 22.5234 133.375 22.8125 134 23.3906C134.625 23.9635 134.938 24.7708 134.938 25.8125C134.938 26.7083 134.659 27.4896 134.102 28.1562C133.544 28.8177 132.688 29.1484 131.531 29.1484H127.922V34H126.367V22.5234ZM133.367 25.8203C133.367 24.9766 133.055 24.4036 132.43 24.1016C132.086 23.9401 131.615 23.8594 131.016 23.8594H127.922V27.8359H131.016C131.714 27.8359 132.279 27.6875 132.711 27.3906C133.148 27.0938 133.367 26.5703 133.367 25.8203ZM136.742 25.6328H138.078V27.0781C138.188 26.7969 138.456 26.4557 138.883 26.0547C139.31 25.6484 139.802 25.4453 140.359 25.4453C140.385 25.4453 140.43 25.4479 140.492 25.4531C140.555 25.4583 140.661 25.4688 140.812 25.4844V26.9688C140.729 26.9531 140.651 26.9427 140.578 26.9375C140.51 26.9323 140.435 26.9297 140.352 26.9297C139.643 26.9297 139.099 27.1589 138.719 27.6172C138.339 28.0703 138.148 28.5938 138.148 29.1875V34H136.742V25.6328ZM145.352 33.0938C146.284 33.0938 146.922 32.7422 147.266 32.0391C147.615 31.3307 147.789 30.5443 147.789 29.6797C147.789 28.8984 147.664 28.263 147.414 27.7734C147.018 27.0026 146.336 26.6172 145.367 26.6172C144.508 26.6172 143.883 26.9453 143.492 27.6016C143.102 28.2578 142.906 29.0495 142.906 29.9766C142.906 30.8672 143.102 31.6094 143.492 32.2031C143.883 32.7969 144.503 33.0938 145.352 33.0938ZM145.406 25.3906C146.484 25.3906 147.396 25.75 148.141 26.4688C148.885 27.1875 149.258 28.2448 149.258 29.6406C149.258 30.9896 148.93 32.1042 148.273 32.9844C147.617 33.8646 146.599 34.3047 145.219 34.3047C144.068 34.3047 143.154 33.9167 142.477 33.1406C141.799 32.3594 141.461 31.3125 141.461 30C141.461 28.5938 141.818 27.474 142.531 26.6406C143.245 25.8073 144.203 25.3906 145.406 25.3906ZM154.164 25.3906C155.107 25.3906 155.872 25.6198 156.461 26.0781C157.055 26.5365 157.411 27.3255 157.531 28.4453H156.164C156.081 27.9297 155.891 27.5026 155.594 27.1641C155.297 26.8203 154.82 26.6484 154.164 26.6484C153.268 26.6484 152.628 27.0859 152.242 27.9609C151.992 28.5286 151.867 29.2292 151.867 30.0625C151.867 30.901 152.044 31.6068 152.398 32.1797C152.753 32.7526 153.31 33.0391 154.07 33.0391C154.654 33.0391 155.115 32.862 155.453 32.5078C155.797 32.1484 156.034 31.6589 156.164 31.0391H157.531C157.375 32.1484 156.984 32.9609 156.359 33.4766C155.734 33.987 154.935 34.2422 153.961 34.2422C152.867 34.2422 151.995 33.8438 151.344 33.0469C150.693 32.2448 150.367 31.2448 150.367 30.0469C150.367 28.5781 150.724 27.4349 151.438 26.6172C152.151 25.7995 153.06 25.3906 154.164 25.3906ZM162.422 25.4453C163.016 25.4453 163.591 25.5859 164.148 25.8672C164.706 26.1432 165.13 26.5026 165.422 26.9453C165.703 27.3672 165.891 27.8594 165.984 28.4219C166.068 28.8073 166.109 29.4219 166.109 30.2656H159.977C160.003 31.1146 160.203 31.7969 160.578 32.3125C160.953 32.8229 161.534 33.0781 162.32 33.0781C163.055 33.0781 163.641 32.8359 164.078 32.3516C164.328 32.0703 164.505 31.7448 164.609 31.375H165.992C165.956 31.6823 165.833 32.026 165.625 32.4062C165.422 32.7812 165.193 33.0885 164.938 33.3281C164.51 33.7448 163.982 34.026 163.352 34.1719C163.013 34.2552 162.63 34.2969 162.203 34.2969C161.161 34.2969 160.279 33.9193 159.555 33.1641C158.831 32.4036 158.469 31.3411 158.469 29.9766C158.469 28.6328 158.833 27.5417 159.562 26.7031C160.292 25.8646 161.245 25.4453 162.422 25.4453ZM164.664 29.1484C164.607 28.5391 164.474 28.0521 164.266 27.6875C163.88 27.0104 163.237 26.6719 162.336 26.6719C161.69 26.6719 161.148 26.9062 160.711 27.375C160.273 27.8385 160.042 28.4297 160.016 29.1484H164.664ZM171.328 25.4453C171.922 25.4453 172.497 25.5859 173.055 25.8672C173.612 26.1432 174.036 26.5026 174.328 26.9453C174.609 27.3672 174.797 27.8594 174.891 28.4219C174.974 28.8073 175.016 29.4219 175.016 30.2656H168.883C168.909 31.1146 169.109 31.7969 169.484 32.3125C169.859 32.8229 170.44 33.0781 171.227 33.0781C171.961 33.0781 172.547 32.8359 172.984 32.3516C173.234 32.0703 173.411 31.7448 173.516 31.375H174.898C174.862 31.6823 174.74 32.026 174.531 32.4062C174.328 32.7812 174.099 33.0885 173.844 33.3281C173.417 33.7448 172.888 34.026 172.258 34.1719C171.919 34.2552 171.536 34.2969 171.109 34.2969C170.068 34.2969 169.185 33.9193 168.461 33.1641C167.737 32.4036 167.375 31.3411 167.375 29.9766C167.375 28.6328 167.74 27.5417 168.469 26.7031C169.198 25.8646 170.151 25.4453 171.328 25.4453ZM173.57 29.1484C173.513 28.5391 173.38 28.0521 173.172 27.6875C172.786 27.0104 172.143 26.6719 171.242 26.6719C170.596 26.6719 170.055 26.9062 169.617 27.375C169.18 27.8385 168.948 28.4297 168.922 29.1484H173.57ZM177.641 29.9141C177.641 30.8099 177.831 31.5599 178.211 32.1641C178.591 32.7682 179.201 33.0703 180.039 33.0703C180.69 33.0703 181.224 32.7917 181.641 32.2344C182.062 31.6719 182.273 30.8672 182.273 29.8203C182.273 28.763 182.057 27.9818 181.625 27.4766C181.193 26.9661 180.659 26.7109 180.023 26.7109C179.315 26.7109 178.74 26.9818 178.297 27.5234C177.859 28.0651 177.641 28.862 177.641 29.9141ZM179.758 25.4844C180.398 25.4844 180.935 25.6198 181.367 25.8906C181.617 26.0469 181.901 26.3203 182.219 26.7109V22.4844H183.57V34H182.305V32.8359C181.977 33.3516 181.589 33.724 181.141 33.9531C180.693 34.1823 180.18 34.2969 179.602 34.2969C178.669 34.2969 177.862 33.9062 177.18 33.125C176.497 32.3385 176.156 31.2943 176.156 29.9922C176.156 28.7734 176.466 27.7188 177.086 26.8281C177.711 25.9323 178.602 25.4844 179.758 25.4844ZM190.391 23.2969H191.812V25.6328H193.148V26.7812H191.812V32.2422C191.812 32.5339 191.911 32.7292 192.109 32.8281C192.219 32.8854 192.401 32.9141 192.656 32.9141C192.724 32.9141 192.797 32.9141 192.875 32.9141C192.953 32.9089 193.044 32.901 193.148 32.8906V34C192.987 34.0469 192.818 34.0807 192.641 34.1016C192.469 34.1224 192.281 34.1328 192.078 34.1328C191.422 34.1328 190.977 33.9661 190.742 33.6328C190.508 33.2943 190.391 32.8568 190.391 32.3203V26.7812H189.258V25.6328H190.391V23.2969ZM197.883 33.0938C198.815 33.0938 199.453 32.7422 199.797 32.0391C200.146 31.3307 200.32 30.5443 200.32 29.6797C200.32 28.8984 200.195 28.263 199.945 27.7734C199.549 27.0026 198.867 26.6172 197.898 26.6172C197.039 26.6172 196.414 26.9453 196.023 27.6016C195.633 28.2578 195.438 29.0495 195.438 29.9766C195.438 30.8672 195.633 31.6094 196.023 32.2031C196.414 32.7969 197.034 33.0938 197.883 33.0938ZM197.938 25.3906C199.016 25.3906 199.927 25.75 200.672 26.4688C201.417 27.1875 201.789 28.2448 201.789 29.6406C201.789 30.9896 201.461 32.1042 200.805 32.9844C200.148 33.8646 199.13 34.3047 197.75 34.3047C196.599 34.3047 195.685 33.9167 195.008 33.1406C194.331 32.3594 193.992 31.3125 193.992 30C193.992 28.5938 194.349 27.474 195.062 26.6406C195.776 25.8073 196.734 25.3906 197.938 25.3906ZM208.758 31.375C208.799 31.8438 208.917 32.2031 209.109 32.4531C209.464 32.9062 210.078 33.1328 210.953 33.1328C211.474 33.1328 211.932 33.0208 212.328 32.7969C212.724 32.5677 212.922 32.2161 212.922 31.7422C212.922 31.3828 212.763 31.1094 212.445 30.9219C212.242 30.8073 211.841 30.6745 211.242 30.5234L210.125 30.2422C209.411 30.0651 208.885 29.8672 208.547 29.6484C207.943 29.2682 207.641 28.7422 207.641 28.0703C207.641 27.2786 207.924 26.638 208.492 26.1484C209.065 25.6589 209.833 25.4141 210.797 25.4141C212.057 25.4141 212.966 25.7839 213.523 26.5234C213.872 26.9922 214.042 27.4974 214.031 28.0391H212.703C212.677 27.7214 212.565 27.4323 212.367 27.1719C212.044 26.8021 211.484 26.6172 210.688 26.6172C210.156 26.6172 209.753 26.7188 209.477 26.9219C209.206 27.125 209.07 27.3932 209.07 27.7266C209.07 28.0911 209.25 28.3828 209.609 28.6016C209.818 28.7318 210.125 28.8464 210.531 28.9453L211.461 29.1719C212.471 29.4167 213.148 29.6536 213.492 29.8828C214.039 30.2422 214.312 30.8073 214.312 31.5781C214.312 32.3229 214.029 32.9661 213.461 33.5078C212.898 34.0495 212.039 34.3203 210.883 34.3203C209.638 34.3203 208.755 34.0391 208.234 33.4766C207.719 32.9089 207.443 32.2083 207.406 31.375H208.758ZM215.922 22.4844H217.328V26.7656C217.661 26.3438 217.961 26.0469 218.227 25.875C218.68 25.5781 219.245 25.4297 219.922 25.4297C221.135 25.4297 221.958 25.8542 222.391 26.7031C222.625 27.1667 222.742 27.8099 222.742 28.6328V34H221.297V28.7266C221.297 28.112 221.219 27.6615 221.062 27.375C220.807 26.9167 220.328 26.6875 219.625 26.6875C219.042 26.6875 218.513 26.888 218.039 27.2891C217.565 27.6901 217.328 28.4479 217.328 29.5625V34H215.922V22.4844ZM224.828 25.6719H226.258V34H224.828V25.6719ZM224.828 22.5234H226.258V24.1172H224.828V22.5234ZM231.922 33.0547C232.578 33.0547 233.122 32.7812 233.555 32.2344C233.992 31.6823 234.211 30.8594 234.211 29.7656C234.211 29.099 234.115 28.526 233.922 28.0469C233.557 27.125 232.891 26.6641 231.922 26.6641C230.948 26.6641 230.281 27.151 229.922 28.125C229.729 28.6458 229.633 29.3073 229.633 30.1094C229.633 30.7552 229.729 31.3047 229.922 31.7578C230.286 32.6224 230.953 33.0547 231.922 33.0547ZM228.281 25.6719H229.648V26.7812C229.93 26.401 230.237 26.1068 230.57 25.8984C231.044 25.5859 231.602 25.4297 232.242 25.4297C233.19 25.4297 233.995 25.7943 234.656 26.5234C235.318 27.2474 235.648 28.2839 235.648 29.6328C235.648 31.4557 235.172 32.7578 234.219 33.5391C233.615 34.0339 232.911 34.2812 232.109 34.2812C231.479 34.2812 230.951 34.1432 230.523 33.8672C230.273 33.7109 229.995 33.4427 229.688 33.0625V37.3359H228.281V25.6719ZM240.828 33.0547C241.484 33.0547 242.029 32.7812 242.461 32.2344C242.898 31.6823 243.117 30.8594 243.117 29.7656C243.117 29.099 243.021 28.526 242.828 28.0469C242.464 27.125 241.797 26.6641 240.828 26.6641C239.854 26.6641 239.188 27.151 238.828 28.125C238.635 28.6458 238.539 29.3073 238.539 30.1094C238.539 30.7552 238.635 31.3047 238.828 31.7578C239.193 32.6224 239.859 33.0547 240.828 33.0547ZM237.188 25.6719H238.555V26.7812C238.836 26.401 239.143 26.1068 239.477 25.8984C239.951 25.5859 240.508 25.4297 241.148 25.4297C242.096 25.4297 242.901 25.7943 243.562 26.5234C244.224 27.2474 244.555 28.2839 244.555 29.6328C244.555 31.4557 244.078 32.7578 243.125 33.5391C242.521 34.0339 241.818 34.2812 241.016 34.2812C240.385 34.2812 239.857 34.1432 239.43 33.8672C239.18 33.7109 238.901 33.4427 238.594 33.0625V37.3359H237.188V25.6719ZM246.203 25.6719H247.633V34H246.203V25.6719ZM246.203 22.5234H247.633V24.1172H246.203V22.5234ZM249.766 25.6328H251.102V26.8203C251.497 26.3307 251.917 25.9792 252.359 25.7656C252.802 25.5521 253.294 25.4453 253.836 25.4453C255.023 25.4453 255.826 25.8594 256.242 26.6875C256.471 27.1406 256.586 27.7891 256.586 28.6328V34H255.156V28.7266C255.156 28.2161 255.081 27.8047 254.93 27.4922C254.68 26.9714 254.227 26.7109 253.57 26.7109C253.237 26.7109 252.964 26.7448 252.75 26.8125C252.365 26.9271 252.026 27.1562 251.734 27.5C251.5 27.776 251.346 28.0625 251.273 28.3594C251.206 28.651 251.172 29.0703 251.172 29.6172V34H249.766V25.6328ZM261.625 25.4844C262.281 25.4844 262.854 25.6458 263.344 25.9688C263.609 26.151 263.88 26.4167 264.156 26.7656V25.7109H265.453V33.3203C265.453 34.3828 265.297 35.2214 264.984 35.8359C264.401 36.9714 263.299 37.5391 261.68 37.5391C260.779 37.5391 260.021 37.3359 259.406 36.9297C258.792 36.5286 258.448 35.8984 258.375 35.0391H259.805C259.872 35.4141 260.008 35.7031 260.211 35.9062C260.529 36.2188 261.029 36.375 261.711 36.375C262.789 36.375 263.495 35.9948 263.828 35.2344C264.026 34.7865 264.117 33.987 264.102 32.8359C263.82 33.263 263.482 33.5807 263.086 33.7891C262.69 33.9974 262.167 34.1016 261.516 34.1016C260.609 34.1016 259.815 33.7812 259.133 33.1406C258.456 32.4948 258.117 31.4297 258.117 29.9453C258.117 28.5443 258.458 27.4505 259.141 26.6641C259.828 25.8776 260.656 25.4844 261.625 25.4844ZM264.156 29.7812C264.156 28.7448 263.943 27.9766 263.516 27.4766C263.089 26.9766 262.544 26.7266 261.883 26.7266C260.893 26.7266 260.216 27.1901 259.852 28.1172C259.659 28.612 259.562 29.2604 259.562 30.0625C259.562 31.0052 259.753 31.724 260.133 32.2188C260.518 32.7083 261.034 32.9531 261.68 32.9531C262.69 32.9531 263.401 32.4974 263.812 31.5859C264.042 31.0703 264.156 30.4688 264.156 29.7812Z" fill="white"/>
</svg>
