<svg width="240" height="34" viewBox="0 0 240 34" fill="none" xmlns="http://www.w3.org/2000/svg">
<path d="M100 2C100 0.89543 100.895 0 102 0H134C135.105 0 136 0.89543 136 2V32C136 33.1046 135.105 34 134 34H102C100.895 34 100 33.1046 100 32V2Z" fill="white"/>
<path d="M50 2C50 0.89543 50.8954 0 52 0H84C85.1046 0 86 0.89543 86 2V32C86 33.1046 85.1046 34 84 34H52C50.8954 34 50 33.1046 50 32V2Z" fill="white"/>
<path d="M0 2C0 0.89543 0.89543 0 2 0H34C35.1046 0 36 0.89543 36 2V32C36 33.1046 35.1046 34 34 34H2C0.895431 34 0 33.1046 0 32V2Z" fill="white"/>
<path d="M21.7188 18.5L22.1562 15.625H19.375V13.75C19.375 12.9375 19.75 12.1875 21 12.1875H22.2812V9.71875C22.2812 9.71875 21.125 9.5 20.0312 9.5C17.75 9.5 16.25 10.9062 16.25 13.4062V15.625H13.6875V18.5H16.25V25.5H19.375V18.5H21.7188Z" fill="#4F4F4F"/>
<path d="M74.3438 14.25C74.9688 13.7812 75.5312 13.2188 75.9688 12.5625C75.4062 12.8125 74.75 13 74.0938 13.0625C74.7812 12.6562 75.2812 12.0312 75.5312 11.25C74.9062 11.625 74.1875 11.9062 73.4688 12.0625C72.8438 11.4062 72 11.0312 71.0625 11.0312C69.25 11.0312 67.7812 12.5 67.7812 14.3125C67.7812 14.5625 67.8125 14.8125 67.875 15.0625C65.1562 14.9062 62.7188 13.5938 61.0938 11.625C60.8125 12.0938 60.6562 12.6562 60.6562 13.2812C60.6562 14.4062 61.2188 15.4062 62.125 16C61.5938 15.9688 61.0625 15.8438 60.625 15.5938V15.625C60.625 17.2188 61.75 18.5312 63.25 18.8438C63 18.9062 62.6875 18.9688 62.4062 18.9688C62.1875 18.9688 62 18.9375 61.7812 18.9062C62.1875 20.2188 63.4062 21.1562 64.8438 21.1875C63.7188 22.0625 62.3125 22.5938 60.7812 22.5938C60.5 22.5938 60.25 22.5625 60 22.5312C61.4375 23.4688 63.1562 24 65.0312 24C71.0625 24 74.3438 19.0312 74.3438 14.6875C74.3438 14.5312 74.3438 14.4062 74.3438 14.25Z" fill="#4F4F4F"/>
<path d="M118 12.9062C116 12.9062 114.406 14.5312 114.406 16.5C114.406 18.5 116 20.0938 118 20.0938C119.969 20.0938 121.594 18.5 121.594 16.5C121.594 14.5312 119.969 12.9062 118 12.9062ZM118 18.8438C116.719 18.8438 115.656 17.8125 115.656 16.5C115.656 15.2188 116.688 14.1875 118 14.1875C119.281 14.1875 120.312 15.2188 120.312 16.5C120.312 17.8125 119.281 18.8438 118 18.8438ZM122.562 12.7812C122.562 12.3125 122.188 11.9375 121.719 11.9375C121.25 11.9375 120.875 12.3125 120.875 12.7812C120.875 13.25 121.25 13.625 121.719 13.625C122.188 13.625 122.562 13.25 122.562 12.7812ZM124.938 13.625C124.875 12.5 124.625 11.5 123.812 10.6875C123 9.875 122 9.625 120.875 9.5625C119.719 9.5 116.25 9.5 115.094 9.5625C113.969 9.625 113 9.875 112.156 10.6875C111.344 11.5 111.094 12.5 111.031 13.625C110.969 14.7812 110.969 18.25 111.031 19.4062C111.094 20.5312 111.344 21.5 112.156 22.3438C113 23.1562 113.969 23.4062 115.094 23.4688C116.25 23.5312 119.719 23.5312 120.875 23.4688C122 23.4062 123 23.1562 123.812 22.3438C124.625 21.5 124.875 20.5312 124.938 19.4062C125 18.25 125 14.7812 124.938 13.625ZM123.438 20.625C123.219 21.25 122.719 21.7188 122.125 21.9688C121.188 22.3438 119 22.25 118 22.25C116.969 22.25 114.781 22.3438 113.875 21.9688C113.25 21.7188 112.781 21.25 112.531 20.625C112.156 19.7188 112.25 17.5312 112.25 16.5C112.25 15.5 112.156 13.3125 112.531 12.375C112.781 11.7812 113.25 11.3125 113.875 11.0625C114.781 10.6875 116.969 10.7812 118 10.7812C119 10.7812 121.188 10.6875 122.125 11.0625C122.719 11.2812 123.188 11.7812 123.438 12.375C123.812 13.3125 123.719 15.5 123.719 16.5C123.719 17.5312 123.812 19.7188 123.438 20.625Z" fill="#4F4F4F"/>
<path d="M150 2C150 0.89543 150.895 0 152 0H184C185.105 0 186 0.89543 186 2V32C186 33.1046 185.105 34 184 34H152C150.895 34 150 33.1046 150 32V2Z" fill="white"/>
<path d="M200 2C200 0.89543 200.895 0 202 0H234C235.105 0 236 0.89543 236 2V32C236 33.1046 235.105 34 234 34H202C200.895 34 200 33.1046 200 32V2Z" fill="white"/>
<path d="M176.156 12.4062C175.969 11.6562 175.375 11.0625 174.656 10.875C173.312 10.5 168 10.5 168 10.5C168 10.5 162.656 10.5 161.312 10.875C160.594 11.0625 160 11.6562 159.812 12.4062C159.438 13.7188 159.438 16.5312 159.438 16.5312C159.438 16.5312 159.438 19.3125 159.812 20.6562C160 21.4062 160.594 21.9688 161.312 22.1562C162.656 22.5 168 22.5 168 22.5C168 22.5 173.312 22.5 174.656 22.1562C175.375 21.9688 175.969 21.4062 176.156 20.6562C176.531 19.3125 176.531 16.5312 176.531 16.5312C176.531 16.5312 176.531 13.7188 176.156 12.4062ZM166.25 19.0625V14L170.688 16.5312L166.25 19.0625Z" fill="#FF9F0D"/>
<path d="M225.5 17.5C225.5 13.2188 222.031 9.75 217.75 9.75C213.469 9.75 210 13.2188 210 17.5C210 20.8125 212.031 23.5938 214.906 24.7188C214.844 24.125 214.781 23.1875 214.938 22.5C215.094 21.9062 215.844 18.6562 215.844 18.6562C215.844 18.6562 215.625 18.1875 215.625 17.5C215.625 16.4375 216.25 15.625 217.031 15.625C217.688 15.625 218 16.125 218 16.7188C218 17.375 217.562 18.375 217.344 19.3125C217.188 20.0625 217.75 20.6875 218.5 20.6875C219.875 20.6875 220.938 19.25 220.938 17.1562C220.938 15.2812 219.594 14 217.719 14C215.5 14 214.219 15.6562 214.219 17.3438C214.219 18.0312 214.469 18.75 214.781 19.125C214.844 19.1875 214.844 19.2812 214.844 19.3438C214.781 19.5938 214.625 20.125 214.625 20.2188C214.594 20.375 214.5 20.4062 214.344 20.3438C213.375 19.875 212.781 18.4688 212.781 17.3125C212.781 14.875 214.562 12.625 217.906 12.625C220.594 12.625 222.688 14.5625 222.688 17.125C222.688 19.7812 221 21.9375 218.656 21.9375C217.875 21.9375 217.125 21.5312 216.875 21.0312C216.875 21.0312 216.5 22.5312 216.406 22.875C216.219 23.5625 215.75 24.4062 215.438 24.9062C216.156 25.1562 216.938 25.25 217.75 25.25C222.031 25.25 225.5 21.7812 225.5 17.5Z" fill="#4F4F4F"/>
</svg>
