<svg width="374" height="135" viewBox="0 0 374 135" fill="none" xmlns="http://www.w3.org/2000/svg">
<rect width="102" height="100" rx="6" fill="#FF9F0D"/>
<rect x="135" y="1" width="102" height="100" rx="6" fill="#FF9F0D"/>
<rect x="272" width="102" height="100" rx="6" fill="#FF9F0D"/>
<path d="M7.58523 129V115.909H15.4347V117.315H9.17045V121.739H14.8466V123.145H9.17045V129H7.58523ZM20.8343 129.23C20.2122 129.23 19.6475 129.113 19.1404 128.879C18.6333 128.64 18.2306 128.297 17.9324 127.849C17.6341 127.398 17.4849 126.852 17.4849 126.213C17.4849 125.651 17.5957 125.195 17.8173 124.845C18.0389 124.491 18.335 124.214 18.7058 124.014C19.0765 123.814 19.4856 123.665 19.9331 123.567C20.3848 123.464 20.8386 123.384 21.2946 123.324C21.8912 123.247 22.3748 123.19 22.7456 123.151C23.1206 123.109 23.3933 123.038 23.5637 122.94C23.7385 122.842 23.8258 122.672 23.8258 122.429V122.378C23.8258 121.747 23.6532 121.257 23.3081 120.908C22.9672 120.558 22.4494 120.384 21.7548 120.384C21.0346 120.384 20.47 120.541 20.0609 120.857C19.6518 121.172 19.3642 121.509 19.198 121.866L17.7662 121.355C18.0218 120.759 18.3627 120.294 18.7889 119.962C19.2193 119.625 19.688 119.391 20.1951 119.259C20.7065 119.122 21.2093 119.054 21.7037 119.054C22.019 119.054 22.3812 119.092 22.7903 119.169C23.2037 119.241 23.6021 119.393 23.9856 119.623C24.3734 119.853 24.6951 120.2 24.9508 120.665C25.2065 121.129 25.3343 121.751 25.3343 122.531V129H23.8258V127.67H23.7491C23.6468 127.884 23.4764 128.112 23.2377 128.354C22.9991 128.597 22.6816 128.804 22.2853 128.974C21.889 129.145 21.4054 129.23 20.8343 129.23ZM21.0645 127.875C21.661 127.875 22.1639 127.758 22.573 127.523C22.9863 127.289 23.2974 126.987 23.5062 126.616C23.7193 126.245 23.8258 125.855 23.8258 125.446V124.065C23.7619 124.142 23.6213 124.212 23.4039 124.276C23.1909 124.336 22.9437 124.389 22.6625 124.436C22.3855 124.479 22.1149 124.517 21.8507 124.551C21.5907 124.581 21.3798 124.607 21.2179 124.628C20.8258 124.679 20.4593 124.762 20.1184 124.877C19.7818 124.988 19.5091 125.156 19.3002 125.382C19.0957 125.604 18.9934 125.906 18.9934 126.29C18.9934 126.814 19.1873 127.21 19.5751 127.479C19.9672 127.743 20.4636 127.875 21.0645 127.875ZM35.0423 121.381L33.6871 121.764C33.6019 121.538 33.4762 121.319 33.31 121.106C33.1481 120.888 32.9265 120.71 32.6452 120.569C32.364 120.428 32.0039 120.358 31.565 120.358C30.9641 120.358 30.4634 120.496 30.0629 120.773C29.6665 121.046 29.4684 121.393 29.4684 121.815C29.4684 122.19 29.6048 122.487 29.8775 122.704C30.1502 122.921 30.5763 123.102 31.1559 123.247L32.6133 123.605C33.4911 123.818 34.1452 124.144 34.5756 124.583C35.006 125.018 35.2212 125.578 35.2212 126.264C35.2212 126.827 35.0593 127.33 34.7354 127.773C34.4158 128.216 33.9684 128.565 33.3931 128.821C32.8178 129.077 32.1488 129.205 31.386 129.205C30.3846 129.205 29.5558 128.987 28.8995 128.553C28.2433 128.118 27.8278 127.483 27.6531 126.648L29.0849 126.29C29.2212 126.818 29.479 127.214 29.8583 127.479C30.2418 127.743 30.7425 127.875 31.3604 127.875C32.0636 127.875 32.6218 127.726 33.0352 127.428C33.4528 127.125 33.6616 126.763 33.6616 126.341C33.6616 126 33.5423 125.714 33.3036 125.484C33.065 125.25 32.6985 125.075 32.2042 124.96L30.5678 124.577C29.6687 124.364 29.0082 124.033 28.5863 123.586C28.1687 123.134 27.9599 122.57 27.9599 121.892C27.9599 121.338 28.1154 120.848 28.4265 120.422C28.7418 119.996 29.1701 119.661 29.7113 119.418C30.2567 119.175 30.8746 119.054 31.565 119.054C32.5366 119.054 33.2994 119.267 33.8533 119.693C34.4116 120.119 34.8079 120.682 35.0423 121.381ZM41.7619 119.182V120.46H36.6738V119.182H41.7619ZM38.1568 116.83H39.6653V126.188C39.6653 126.614 39.7271 126.933 39.8507 127.146C39.9785 127.355 40.1404 127.496 40.3365 127.568C40.5368 127.636 40.7477 127.67 40.9693 127.67C41.1355 127.67 41.2718 127.662 41.3784 127.645C41.4849 127.624 41.5701 127.607 41.6341 127.594L41.9409 128.949C41.8386 128.987 41.6958 129.026 41.5126 129.064C41.3294 129.107 41.0971 129.128 40.8159 129.128C40.3897 129.128 39.9721 129.036 39.563 128.853C39.1582 128.67 38.8216 128.391 38.5531 128.016C38.2889 127.641 38.1568 127.168 38.1568 126.597V116.83ZM49.2981 129V115.909H57.1476V117.315H50.8833V121.739H56.5595V123.145H50.8833V129H49.2981ZM62.926 129.205C62.0396 129.205 61.2619 128.994 60.5929 128.572C59.9281 128.15 59.4082 127.56 59.0332 126.801C58.6625 126.043 58.4771 125.156 58.4771 124.142C58.4771 123.119 58.6625 122.227 59.0332 121.464C59.4082 120.701 59.9281 120.109 60.5929 119.687C61.2619 119.265 62.0396 119.054 62.926 119.054C63.8123 119.054 64.5879 119.265 65.2527 119.687C65.9217 120.109 66.4416 120.701 66.8123 121.464C67.1873 122.227 67.3748 123.119 67.3748 124.142C67.3748 125.156 67.1873 126.043 66.8123 126.801C66.4416 127.56 65.9217 128.15 65.2527 128.572C64.5879 128.994 63.8123 129.205 62.926 129.205ZM62.926 127.849C63.5993 127.849 64.1532 127.677 64.5879 127.332C65.0225 126.987 65.3443 126.533 65.5531 125.97C65.7619 125.408 65.8663 124.798 65.8663 124.142C65.8663 123.486 65.7619 122.874 65.5531 122.308C65.3443 121.741 65.0225 121.283 64.5879 120.933C64.1532 120.584 63.5993 120.409 62.926 120.409C62.2527 120.409 61.6987 120.584 61.264 120.933C60.8294 121.283 60.5076 121.741 60.2988 122.308C60.09 122.874 59.9856 123.486 59.9856 124.142C59.9856 124.798 60.09 125.408 60.2988 125.97C60.5076 126.533 60.8294 126.987 61.264 127.332C61.6987 127.677 62.2527 127.849 62.926 127.849ZM73.6662 129.205C72.7798 129.205 72.0021 128.994 71.3331 128.572C70.6683 128.15 70.1484 127.56 69.7734 126.801C69.4027 126.043 69.2173 125.156 69.2173 124.142C69.2173 123.119 69.4027 122.227 69.7734 121.464C70.1484 120.701 70.6683 120.109 71.3331 119.687C72.0021 119.265 72.7798 119.054 73.6662 119.054C74.5526 119.054 75.3281 119.265 75.9929 119.687C76.6619 120.109 77.1818 120.701 77.5526 121.464C77.9276 122.227 78.1151 123.119 78.1151 124.142C78.1151 125.156 77.9276 126.043 77.5526 126.801C77.1818 127.56 76.6619 128.15 75.9929 128.572C75.3281 128.994 74.5526 129.205 73.6662 129.205ZM73.6662 127.849C74.3395 127.849 74.8935 127.677 75.3281 127.332C75.7628 126.987 76.0845 126.533 76.2933 125.97C76.5021 125.408 76.6065 124.798 76.6065 124.142C76.6065 123.486 76.5021 122.874 76.2933 122.308C76.0845 121.741 75.7628 121.283 75.3281 120.933C74.8935 120.584 74.3395 120.409 73.6662 120.409C72.9929 120.409 72.4389 120.584 72.0043 120.933C71.5696 121.283 71.2479 121.741 71.0391 122.308C70.8303 122.874 70.7259 123.486 70.7259 124.142C70.7259 124.798 70.8303 125.408 71.0391 125.97C71.2479 126.533 71.5696 126.987 72.0043 127.332C72.4389 127.677 72.9929 127.849 73.6662 127.849ZM84.1252 129.205C83.307 129.205 82.5847 128.998 81.9583 128.585C81.3319 128.167 80.8418 127.579 80.4881 126.82C80.1344 126.058 79.9576 125.156 79.9576 124.116C79.9576 123.085 80.1344 122.19 80.4881 121.432C80.8418 120.673 81.334 120.087 81.9647 119.674C82.5953 119.261 83.324 119.054 84.1507 119.054C84.79 119.054 85.2949 119.161 85.6657 119.374C86.0407 119.582 86.3262 119.821 86.5222 120.089C86.7225 120.354 86.878 120.571 86.9888 120.741H87.1167V115.909H88.6252V129H87.1678V127.491H86.9888C86.878 127.67 86.7203 127.896 86.5158 128.169C86.3113 128.437 86.0194 128.678 85.6401 128.891C85.2608 129.1 84.7559 129.205 84.1252 129.205ZM84.3297 127.849C84.9348 127.849 85.4462 127.692 85.8638 127.376C86.2814 127.057 86.5989 126.616 86.8162 126.053C87.0336 125.487 87.1422 124.832 87.1422 124.091C87.1422 123.358 87.0357 122.717 86.8226 122.167C86.6096 121.613 86.2942 121.183 85.8766 120.876C85.459 120.565 84.9434 120.409 84.3297 120.409C83.6905 120.409 83.1578 120.573 82.7317 120.901C82.3098 121.225 81.9924 121.666 81.7793 122.224C81.5705 122.778 81.4661 123.401 81.4661 124.091C81.4661 124.79 81.5726 125.425 81.7857 125.996C82.003 126.562 82.3226 127.014 82.7445 127.351C83.1706 127.683 83.699 127.849 84.3297 127.849Z" fill="white"/>
<path d="M161.585 129V115.909H163.17V127.594H169.256V129H161.585ZM177.693 124.986V119.182H179.202V129H177.693V127.338H177.591C177.361 127.837 177.003 128.261 176.517 128.61C176.031 128.955 175.418 129.128 174.676 129.128C174.062 129.128 173.517 128.994 173.04 128.725C172.563 128.452 172.188 128.043 171.915 127.498C171.642 126.948 171.506 126.256 171.506 125.42V119.182H173.014V125.318C173.014 126.034 173.214 126.605 173.615 127.031C174.02 127.457 174.536 127.67 175.162 127.67C175.537 127.67 175.918 127.575 176.306 127.383C176.698 127.191 177.026 126.897 177.29 126.501C177.559 126.104 177.693 125.599 177.693 124.986ZM183.473 123.094V129H181.965V119.182H183.422V120.716H183.55C183.78 120.217 184.129 119.817 184.598 119.514C185.067 119.207 185.672 119.054 186.414 119.054C187.078 119.054 187.66 119.19 188.159 119.463C188.657 119.732 189.045 120.141 189.322 120.69C189.599 121.236 189.737 121.926 189.737 122.761V129H188.229V122.864C188.229 122.092 188.029 121.491 187.628 121.061C187.227 120.626 186.678 120.409 185.979 120.409C185.497 120.409 185.067 120.513 184.688 120.722C184.313 120.931 184.017 121.236 183.799 121.636C183.582 122.037 183.473 122.523 183.473 123.094ZM196.483 129.205C195.562 129.205 194.77 128.987 194.105 128.553C193.44 128.118 192.929 127.519 192.571 126.756C192.213 125.994 192.034 125.122 192.034 124.142C192.034 123.145 192.217 122.265 192.583 121.502C192.954 120.735 193.47 120.136 194.13 119.706C194.795 119.271 195.571 119.054 196.457 119.054C197.147 119.054 197.77 119.182 198.324 119.438C198.877 119.693 199.331 120.051 199.685 120.511C200.039 120.972 200.258 121.509 200.343 122.122H198.835C198.72 121.675 198.464 121.278 198.068 120.933C197.676 120.584 197.147 120.409 196.483 120.409C195.895 120.409 195.379 120.562 194.936 120.869C194.497 121.172 194.154 121.6 193.907 122.154C193.664 122.704 193.542 123.349 193.542 124.091C193.542 124.849 193.662 125.51 193.9 126.072C194.143 126.635 194.484 127.072 194.923 127.383C195.366 127.694 195.886 127.849 196.483 127.849C196.875 127.849 197.23 127.781 197.55 127.645C197.87 127.509 198.14 127.312 198.362 127.057C198.583 126.801 198.741 126.494 198.835 126.136H200.343C200.258 126.716 200.047 127.238 199.711 127.702C199.378 128.163 198.937 128.529 198.387 128.802C197.842 129.07 197.207 129.205 196.483 129.205ZM204.057 123.094V129H202.549V115.909H204.057V120.716H204.185C204.415 120.209 204.76 119.806 205.221 119.508C205.685 119.205 206.303 119.054 207.074 119.054C207.743 119.054 208.329 119.188 208.832 119.457C209.335 119.721 209.725 120.128 210.002 120.678C210.283 121.223 210.424 121.918 210.424 122.761V129H208.915V122.864C208.915 122.084 208.713 121.481 208.308 121.055C207.907 120.624 207.351 120.409 206.64 120.409C206.145 120.409 205.702 120.513 205.31 120.722C204.922 120.931 204.615 121.236 204.39 121.636C204.168 122.037 204.057 122.523 204.057 123.094Z" fill="white"/>
<path d="M299.625 129H295.585V115.909H299.804C301.074 115.909 302.161 116.171 303.064 116.695C303.967 117.215 304.66 117.963 305.141 118.939C305.623 119.911 305.864 121.074 305.864 122.429C305.864 123.793 305.621 124.967 305.135 125.951C304.649 126.931 303.942 127.685 303.013 128.214C302.084 128.738 300.955 129 299.625 129ZM297.17 127.594H299.523C300.605 127.594 301.502 127.385 302.214 126.967C302.925 126.55 303.456 125.955 303.805 125.184C304.155 124.413 304.33 123.494 304.33 122.429C304.33 121.372 304.157 120.462 303.812 119.7C303.467 118.933 302.951 118.344 302.265 117.935C301.579 117.522 300.724 117.315 299.702 117.315H297.17V127.594ZM308.318 129V119.182H309.827V129H308.318ZM309.085 117.545C308.791 117.545 308.538 117.445 308.325 117.245C308.116 117.045 308.011 116.804 308.011 116.523C308.011 116.241 308.116 116.001 308.325 115.8C308.538 115.6 308.791 115.5 309.085 115.5C309.379 115.5 309.631 115.6 309.839 115.8C310.053 116.001 310.159 116.241 310.159 116.523C310.159 116.804 310.053 117.045 309.839 117.245C309.631 117.445 309.379 117.545 309.085 117.545ZM314.098 123.094V129H312.59V119.182H314.047V120.716H314.175C314.405 120.217 314.754 119.817 315.223 119.514C315.692 119.207 316.297 119.054 317.039 119.054C317.703 119.054 318.285 119.19 318.784 119.463C319.282 119.732 319.67 120.141 319.947 120.69C320.224 121.236 320.362 121.926 320.362 122.761V129H318.854V122.864C318.854 122.092 318.654 121.491 318.253 121.061C317.852 120.626 317.303 120.409 316.604 120.409C316.122 120.409 315.692 120.513 315.313 120.722C314.938 120.931 314.642 121.236 314.424 121.636C314.207 122.037 314.098 122.523 314.098 123.094ZM324.627 123.094V129H323.119V119.182H324.576V120.716H324.704C324.934 120.217 325.284 119.817 325.752 119.514C326.221 119.207 326.826 119.054 327.568 119.054C328.233 119.054 328.814 119.19 329.313 119.463C329.811 119.732 330.199 120.141 330.476 120.69C330.753 121.236 330.892 121.926 330.892 122.761V129H329.383V122.864C329.383 122.092 329.183 121.491 328.782 121.061C328.382 120.626 327.832 120.409 327.133 120.409C326.652 120.409 326.221 120.513 325.842 120.722C325.467 120.931 325.171 121.236 324.953 121.636C324.736 122.037 324.627 122.523 324.627 123.094ZM337.765 129.205C336.819 129.205 336.003 128.996 335.317 128.578C334.635 128.156 334.108 127.568 333.738 126.814C333.371 126.055 333.188 125.173 333.188 124.168C333.188 123.162 333.371 122.276 333.738 121.509C334.108 120.737 334.624 120.136 335.285 119.706C335.949 119.271 336.725 119.054 337.611 119.054C338.123 119.054 338.628 119.139 339.126 119.31C339.625 119.48 340.079 119.757 340.488 120.141C340.897 120.52 341.223 121.023 341.466 121.649C341.709 122.276 341.83 123.047 341.83 123.963V124.602H334.262V123.298H340.296C340.296 122.744 340.185 122.25 339.964 121.815C339.746 121.381 339.435 121.038 339.03 120.786C338.63 120.535 338.157 120.409 337.611 120.409C337.01 120.409 336.491 120.558 336.052 120.857C335.617 121.151 335.282 121.534 335.048 122.007C334.814 122.48 334.697 122.987 334.697 123.528V124.398C334.697 125.139 334.824 125.768 335.08 126.283C335.34 126.795 335.7 127.185 336.16 127.453C336.621 127.717 337.155 127.849 337.765 127.849C338.161 127.849 338.519 127.794 338.839 127.683C339.162 127.568 339.442 127.398 339.676 127.172C339.91 126.942 340.091 126.656 340.219 126.315L341.677 126.724C341.523 127.219 341.265 127.653 340.903 128.028C340.541 128.399 340.094 128.689 339.561 128.898C339.028 129.102 338.43 129.205 337.765 129.205ZM344.125 129V119.182H345.582V120.665H345.684C345.863 120.179 346.187 119.785 346.656 119.482C347.125 119.18 347.653 119.028 348.241 119.028C348.352 119.028 348.491 119.031 348.657 119.035C348.823 119.039 348.949 119.045 349.034 119.054V120.588C348.983 120.575 348.866 120.556 348.682 120.531C348.503 120.501 348.314 120.486 348.113 120.486C347.636 120.486 347.21 120.586 346.835 120.786C346.464 120.982 346.17 121.255 345.953 121.604C345.74 121.95 345.633 122.344 345.633 122.787V129H344.125Z" fill="white"/>
</svg>
