<svg width="194" height="22" viewBox="0 0 194 22" fill="none" xmlns="http://www.w3.org/2000/svg">
<path d="M29.9551 12.7598C29.987 13.3294 30.1214 13.792 30.3584 14.1475C30.8096 14.8128 31.6048 15.1455 32.7441 15.1455C33.2546 15.1455 33.7194 15.0726 34.1387 14.9268C34.9499 14.6442 35.3555 14.1383 35.3555 13.4092C35.3555 12.8623 35.1846 12.4727 34.8428 12.2402C34.4964 12.0124 33.9541 11.8141 33.2158 11.6455L31.8555 11.3379C30.9668 11.1374 30.3379 10.9163 29.9688 10.6748C29.3307 10.2555 29.0117 9.62891 29.0117 8.79492C29.0117 7.89258 29.3239 7.15202 29.9482 6.57324C30.5726 5.99447 31.4567 5.70508 32.6006 5.70508C33.6533 5.70508 34.5465 5.96029 35.2803 6.4707C36.0186 6.97656 36.3877 7.78776 36.3877 8.9043H35.1094C35.041 8.36654 34.8952 7.9541 34.6719 7.66699C34.2572 7.1429 33.5531 6.88086 32.5596 6.88086C31.7575 6.88086 31.181 7.04948 30.8301 7.38672C30.4792 7.72396 30.3037 8.11589 30.3037 8.5625C30.3037 9.05469 30.5088 9.41471 30.9189 9.64258C31.1878 9.78841 31.7962 9.9707 32.7441 10.1895L34.1523 10.5107C34.8314 10.6657 35.3555 10.8776 35.7246 11.1465C36.3626 11.6159 36.6816 12.2972 36.6816 13.1904C36.6816 14.3024 36.276 15.0977 35.4648 15.5762C34.6582 16.0547 33.7194 16.2939 32.6484 16.2939C31.3997 16.2939 30.4222 15.9749 29.7158 15.3369C29.0094 14.7035 28.6631 13.8444 28.6768 12.7598H29.9551ZM39.1836 14.0518C39.1836 14.4072 39.3135 14.6875 39.5732 14.8926C39.833 15.0977 40.1406 15.2002 40.4961 15.2002C40.929 15.2002 41.3483 15.0999 41.7539 14.8994C42.4375 14.5667 42.7793 14.0221 42.7793 13.2656V12.2744C42.6289 12.3701 42.4352 12.4499 42.1982 12.5137C41.9613 12.5775 41.7288 12.623 41.501 12.6504L40.7559 12.7461C40.3092 12.8053 39.9743 12.8988 39.751 13.0264C39.3727 13.2406 39.1836 13.5824 39.1836 14.0518ZM42.1641 11.5635C42.4466 11.527 42.6357 11.4085 42.7314 11.208C42.7861 11.0986 42.8135 10.9414 42.8135 10.7363C42.8135 10.3171 42.6631 10.014 42.3623 9.82715C42.0661 9.63574 41.64 9.54004 41.084 9.54004C40.4414 9.54004 39.9857 9.71322 39.7168 10.0596C39.5664 10.251 39.4684 10.5358 39.4229 10.9141H38.2744C38.2972 10.0117 38.5889 9.38509 39.1494 9.03418C39.7145 8.67871 40.3685 8.50098 41.1113 8.50098C41.9727 8.50098 42.6722 8.66504 43.21 8.99316C43.7432 9.32129 44.0098 9.83171 44.0098 10.5244V14.7422C44.0098 14.8698 44.0348 14.9723 44.085 15.0498C44.1396 15.1273 44.2513 15.166 44.4199 15.166C44.4746 15.166 44.5361 15.1637 44.6045 15.1592C44.6729 15.1501 44.7458 15.1387 44.8232 15.125V16.0342C44.6318 16.0889 44.486 16.123 44.3857 16.1367C44.2855 16.1504 44.1488 16.1572 43.9756 16.1572C43.5518 16.1572 43.2441 16.0068 43.0527 15.7061C42.9525 15.5465 42.8818 15.321 42.8408 15.0293C42.5902 15.3574 42.2301 15.6423 41.7607 15.8838C41.2913 16.1253 40.7741 16.2461 40.209 16.2461C39.5299 16.2461 38.974 16.041 38.541 15.6309C38.1126 15.2161 37.8984 14.6989 37.8984 14.0791C37.8984 13.4001 38.1104 12.8737 38.5342 12.5C38.958 12.1263 39.514 11.8962 40.2021 11.8096L42.1641 11.5635ZM46.0332 8.67871H47.25V9.71777C47.5417 9.35775 47.806 9.0957 48.043 8.93164C48.4486 8.65365 48.9089 8.51465 49.4238 8.51465C50.0072 8.51465 50.4766 8.6582 50.832 8.94531C51.0326 9.10938 51.2148 9.35091 51.3789 9.66992C51.6523 9.27799 51.9736 8.98861 52.3428 8.80176C52.7119 8.61035 53.1266 8.51465 53.5869 8.51465C54.5713 8.51465 55.2412 8.87012 55.5967 9.58105C55.7881 9.96387 55.8838 10.4788 55.8838 11.126V16H54.6055V10.9141C54.6055 10.4264 54.4824 10.0915 54.2363 9.90918C53.9948 9.72689 53.6986 9.63574 53.3477 9.63574C52.8646 9.63574 52.4476 9.79753 52.0967 10.1211C51.7503 10.4447 51.5771 10.9847 51.5771 11.7412V16H50.3262V11.2217C50.3262 10.7249 50.2669 10.3626 50.1484 10.1348C49.9616 9.79297 49.613 9.62207 49.1025 9.62207C48.6377 9.62207 48.2139 9.80208 47.8311 10.1621C47.4528 10.5221 47.2637 11.1738 47.2637 12.1172V16H46.0332V8.67871ZM60.7441 8.51465C61.2637 8.51465 61.7673 8.6377 62.2549 8.88379C62.7425 9.12533 63.1139 9.43978 63.3691 9.82715C63.6152 10.1963 63.7793 10.627 63.8613 11.1191C63.9342 11.4564 63.9707 11.9941 63.9707 12.7324H58.6045C58.6273 13.4753 58.8027 14.0723 59.1309 14.5234C59.459 14.9701 59.9671 15.1934 60.6553 15.1934C61.2979 15.1934 61.8105 14.9814 62.1934 14.5576C62.4121 14.3115 62.5671 14.0267 62.6582 13.7031H63.8682C63.8363 13.972 63.7292 14.2728 63.5469 14.6055C63.3691 14.9336 63.1686 15.2025 62.9453 15.4121C62.5716 15.7767 62.109 16.0228 61.5576 16.1504C61.2614 16.2233 60.9264 16.2598 60.5527 16.2598C59.6413 16.2598 58.8688 15.9294 58.2354 15.2686C57.6019 14.6032 57.2852 13.6735 57.2852 12.4795C57.2852 11.3037 57.6042 10.349 58.2422 9.61523C58.8802 8.88151 59.7142 8.51465 60.7441 8.51465ZM62.7061 11.7549C62.6559 11.2217 62.5397 10.7956 62.3574 10.4766C62.0202 9.88411 61.4574 9.58789 60.6689 9.58789C60.1038 9.58789 59.6299 9.79297 59.2471 10.2031C58.8643 10.6087 58.6615 11.126 58.6387 11.7549H62.7061ZM70.3281 14.0518C70.3281 14.4072 70.458 14.6875 70.7178 14.8926C70.9775 15.0977 71.2852 15.2002 71.6406 15.2002C72.0736 15.2002 72.4928 15.0999 72.8984 14.8994C73.582 14.5667 73.9238 14.0221 73.9238 13.2656V12.2744C73.7734 12.3701 73.5798 12.4499 73.3428 12.5137C73.1058 12.5775 72.8734 12.623 72.6455 12.6504L71.9004 12.7461C71.4538 12.8053 71.1188 12.8988 70.8955 13.0264C70.5173 13.2406 70.3281 13.5824 70.3281 14.0518ZM73.3086 11.5635C73.5911 11.527 73.7803 11.4085 73.876 11.208C73.9307 11.0986 73.958 10.9414 73.958 10.7363C73.958 10.3171 73.8076 10.014 73.5068 9.82715C73.2106 9.63574 72.7845 9.54004 72.2285 9.54004C71.5859 9.54004 71.1302 9.71322 70.8613 10.0596C70.7109 10.251 70.613 10.5358 70.5674 10.9141H69.4189C69.4417 10.0117 69.7334 9.38509 70.2939 9.03418C70.859 8.67871 71.513 8.50098 72.2559 8.50098C73.1172 8.50098 73.8167 8.66504 74.3545 8.99316C74.8877 9.32129 75.1543 9.83171 75.1543 10.5244V14.7422C75.1543 14.8698 75.1794 14.9723 75.2295 15.0498C75.2842 15.1273 75.3958 15.166 75.5645 15.166C75.6191 15.166 75.6807 15.1637 75.749 15.1592C75.8174 15.1501 75.8903 15.1387 75.9678 15.125V16.0342C75.7764 16.0889 75.6305 16.123 75.5303 16.1367C75.43 16.1504 75.2933 16.1572 75.1201 16.1572C74.6963 16.1572 74.3887 16.0068 74.1973 15.7061C74.097 15.5465 74.0264 15.321 73.9854 15.0293C73.7347 15.3574 73.3747 15.6423 72.9053 15.8838C72.4359 16.1253 71.9186 16.2461 71.3535 16.2461C70.6745 16.2461 70.1185 16.041 69.6855 15.6309C69.2572 15.2161 69.043 14.6989 69.043 14.0791C69.043 13.4001 69.2549 12.8737 69.6787 12.5C70.1025 12.1263 70.6585 11.8962 71.3467 11.8096L73.3086 11.5635ZM77.9092 13.7031C77.9456 14.1133 78.0482 14.4277 78.2168 14.6465C78.5267 15.043 79.0645 15.2412 79.8301 15.2412C80.2858 15.2412 80.6868 15.1432 81.0332 14.9473C81.3796 14.7467 81.5527 14.4391 81.5527 14.0244C81.5527 13.71 81.4137 13.4707 81.1357 13.3066C80.958 13.2064 80.6071 13.0902 80.083 12.958L79.1055 12.7119C78.4811 12.557 78.0208 12.3838 77.7246 12.1924C77.196 11.8597 76.9316 11.3994 76.9316 10.8115C76.9316 10.1188 77.18 9.55827 77.6768 9.12988C78.1781 8.7015 78.8503 8.4873 79.6934 8.4873C80.7962 8.4873 81.5915 8.81087 82.0791 9.45801C82.3844 9.86816 82.5326 10.3102 82.5234 10.7842H81.3613C81.3385 10.5062 81.2406 10.2533 81.0674 10.0254C80.7848 9.70182 80.2949 9.54004 79.5977 9.54004C79.1328 9.54004 78.7796 9.62891 78.5381 9.80664C78.3011 9.98438 78.1826 10.2191 78.1826 10.5107C78.1826 10.8298 78.3398 11.085 78.6543 11.2764C78.8366 11.3903 79.1055 11.4906 79.4609 11.5771L80.2744 11.7754C81.1585 11.9896 81.751 12.1969 82.0518 12.3975C82.5303 12.7119 82.7695 13.2064 82.7695 13.8809C82.7695 14.5326 82.5212 15.0954 82.0244 15.5693C81.5322 16.0433 80.7803 16.2803 79.7686 16.2803C78.6794 16.2803 77.9069 16.0342 77.4512 15.542C77 15.0452 76.7585 14.4323 76.7266 13.7031H77.9092ZM88.8057 13.7031C88.8421 14.1133 88.9447 14.4277 89.1133 14.6465C89.4232 15.043 89.9609 15.2412 90.7266 15.2412C91.1823 15.2412 91.5833 15.1432 91.9297 14.9473C92.276 14.7467 92.4492 14.4391 92.4492 14.0244C92.4492 13.71 92.3102 13.4707 92.0322 13.3066C91.8545 13.2064 91.5036 13.0902 90.9795 12.958L90.002 12.7119C89.3776 12.557 88.9173 12.3838 88.6211 12.1924C88.0924 11.8597 87.8281 11.3994 87.8281 10.8115C87.8281 10.1188 88.0765 9.55827 88.5732 9.12988C89.0745 8.7015 89.7467 8.4873 90.5898 8.4873C91.6927 8.4873 92.488 8.81087 92.9756 9.45801C93.2809 9.86816 93.429 10.3102 93.4199 10.7842H92.2578C92.235 10.5062 92.137 10.2533 91.9639 10.0254C91.6813 9.70182 91.1914 9.54004 90.4941 9.54004C90.0293 9.54004 89.6761 9.62891 89.4346 9.80664C89.1976 9.98438 89.0791 10.2191 89.0791 10.5107C89.0791 10.8298 89.2363 11.085 89.5508 11.2764C89.7331 11.3903 90.002 11.4906 90.3574 11.5771L91.1709 11.7754C92.055 11.9896 92.6475 12.1969 92.9482 12.3975C93.4268 12.7119 93.666 13.2064 93.666 13.8809C93.666 14.5326 93.4176 15.0954 92.9209 15.5693C92.4287 16.0433 91.6768 16.2803 90.665 16.2803C89.5758 16.2803 88.8034 16.0342 88.3477 15.542C87.8965 15.0452 87.6549 14.4323 87.623 13.7031H88.8057ZM95.0742 5.92383H96.3047V9.66992C96.5964 9.30078 96.8584 9.04102 97.0908 8.89062C97.4873 8.63086 97.9818 8.50098 98.5742 8.50098C99.6361 8.50098 100.356 8.8724 100.734 9.61523C100.939 10.0208 101.042 10.5837 101.042 11.3037V16H99.7773V11.3857C99.7773 10.848 99.709 10.4538 99.5723 10.2031C99.349 9.80208 98.9297 9.60156 98.3145 9.60156C97.804 9.60156 97.3415 9.77702 96.9268 10.1279C96.512 10.4788 96.3047 11.1419 96.3047 12.1172V16H95.0742V5.92383ZM102.867 8.71289H104.118V16H102.867V8.71289ZM102.867 5.95801H104.118V7.35254H102.867V5.95801ZM109.074 15.1729C109.648 15.1729 110.125 14.9336 110.503 14.4551C110.886 13.972 111.077 13.252 111.077 12.2949C111.077 11.7116 110.993 11.2103 110.824 10.791C110.505 9.98438 109.922 9.58105 109.074 9.58105C108.222 9.58105 107.639 10.0072 107.324 10.8594C107.156 11.3151 107.071 11.8939 107.071 12.5957C107.071 13.1608 107.156 13.6416 107.324 14.0381C107.643 14.7946 108.227 15.1729 109.074 15.1729ZM105.889 8.71289H107.085V9.68359C107.331 9.35091 107.6 9.09342 107.892 8.91113C108.306 8.6377 108.794 8.50098 109.354 8.50098C110.184 8.50098 110.888 8.81999 111.467 9.45801C112.046 10.0915 112.335 10.9984 112.335 12.1787C112.335 13.7738 111.918 14.9131 111.084 15.5967C110.555 16.0296 109.94 16.2461 109.238 16.2461C108.687 16.2461 108.224 16.1253 107.851 15.8838C107.632 15.7471 107.388 15.5124 107.119 15.1797V18.9189H105.889V8.71289ZM116.867 15.1729C117.441 15.1729 117.918 14.9336 118.296 14.4551C118.679 13.972 118.87 13.252 118.87 12.2949C118.87 11.7116 118.786 11.2103 118.617 10.791C118.298 9.98438 117.715 9.58105 116.867 9.58105C116.015 9.58105 115.432 10.0072 115.117 10.8594C114.949 11.3151 114.864 11.8939 114.864 12.5957C114.864 13.1608 114.949 13.6416 115.117 14.0381C115.436 14.7946 116.02 15.1729 116.867 15.1729ZM113.682 8.71289H114.878V9.68359C115.124 9.35091 115.393 9.09342 115.685 8.91113C116.099 8.6377 116.587 8.50098 117.147 8.50098C117.977 8.50098 118.681 8.81999 119.26 9.45801C119.839 10.0915 120.128 10.9984 120.128 12.1787C120.128 13.7738 119.711 14.9131 118.877 15.5967C118.348 16.0296 117.733 16.2461 117.031 16.2461C116.48 16.2461 116.017 16.1253 115.644 15.8838C115.425 15.7471 115.181 15.5124 114.912 15.1797V18.9189H113.682V8.71289ZM121.57 8.71289H122.821V16H121.57V8.71289ZM121.57 5.95801H122.821V7.35254H121.57V5.95801ZM124.688 8.67871H125.856V9.71777C126.203 9.28939 126.57 8.98177 126.957 8.79492C127.344 8.60807 127.775 8.51465 128.249 8.51465C129.288 8.51465 129.99 8.87695 130.354 9.60156C130.555 9.99805 130.655 10.5654 130.655 11.3037V16H129.404V11.3857C129.404 10.9391 129.338 10.5791 129.206 10.3057C128.987 9.84993 128.591 9.62207 128.017 9.62207C127.725 9.62207 127.486 9.65169 127.299 9.71094C126.962 9.8112 126.665 10.0117 126.41 10.3125C126.205 10.554 126.071 10.8047 126.007 11.0645C125.948 11.3197 125.918 11.6865 125.918 12.165V16H124.688V8.67871ZM135.064 8.54883C135.639 8.54883 136.14 8.6901 136.568 8.97266C136.801 9.13216 137.038 9.36458 137.279 9.66992V8.74707H138.414V15.4053C138.414 16.335 138.277 17.0687 138.004 17.6064C137.493 18.5999 136.53 19.0967 135.112 19.0967C134.324 19.0967 133.661 18.9189 133.123 18.5635C132.585 18.2126 132.285 17.6611 132.221 16.9092H133.472C133.531 17.2373 133.649 17.4902 133.827 17.668C134.105 17.9414 134.543 18.0781 135.14 18.0781C136.083 18.0781 136.701 17.7454 136.992 17.0801C137.165 16.6882 137.245 15.9886 137.231 14.9814C136.985 15.3551 136.689 15.6331 136.343 15.8154C135.996 15.9977 135.538 16.0889 134.969 16.0889C134.176 16.0889 133.481 15.8086 132.884 15.248C132.291 14.6829 131.995 13.751 131.995 12.4521C131.995 11.2262 132.294 10.2692 132.891 9.58105C133.492 8.8929 134.217 8.54883 135.064 8.54883ZM137.279 12.3086C137.279 11.4017 137.092 10.7295 136.719 10.292C136.345 9.85449 135.869 9.63574 135.29 9.63574C134.424 9.63574 133.832 10.0413 133.513 10.8525C133.344 11.2855 133.26 11.8529 133.26 12.5547C133.26 13.3796 133.426 14.0085 133.759 14.4414C134.096 14.8698 134.547 15.084 135.112 15.084C135.996 15.084 136.618 14.6852 136.979 13.8877C137.179 13.4365 137.279 12.9102 137.279 12.3086ZM145.113 14.0518C145.113 14.4072 145.243 14.6875 145.503 14.8926C145.763 15.0977 146.07 15.2002 146.426 15.2002C146.859 15.2002 147.278 15.0999 147.684 14.8994C148.367 14.5667 148.709 14.0221 148.709 13.2656V12.2744C148.559 12.3701 148.365 12.4499 148.128 12.5137C147.891 12.5775 147.659 12.623 147.431 12.6504L146.686 12.7461C146.239 12.8053 145.904 12.8988 145.681 13.0264C145.302 13.2406 145.113 13.5824 145.113 14.0518ZM148.094 11.5635C148.376 11.527 148.565 11.4085 148.661 11.208C148.716 11.0986 148.743 10.9414 148.743 10.7363C148.743 10.3171 148.593 10.014 148.292 9.82715C147.996 9.63574 147.57 9.54004 147.014 9.54004C146.371 9.54004 145.915 9.71322 145.646 10.0596C145.496 10.251 145.398 10.5358 145.353 10.9141H144.204C144.227 10.0117 144.519 9.38509 145.079 9.03418C145.644 8.67871 146.298 8.50098 147.041 8.50098C147.902 8.50098 148.602 8.66504 149.14 8.99316C149.673 9.32129 149.939 9.83171 149.939 10.5244V14.7422C149.939 14.8698 149.965 14.9723 150.015 15.0498C150.069 15.1273 150.181 15.166 150.35 15.166C150.404 15.166 150.466 15.1637 150.534 15.1592C150.603 15.1501 150.675 15.1387 150.753 15.125V16.0342C150.562 16.0889 150.416 16.123 150.315 16.1367C150.215 16.1504 150.078 16.1572 149.905 16.1572C149.481 16.1572 149.174 16.0068 148.982 15.7061C148.882 15.5465 148.812 15.321 148.771 15.0293C148.52 15.3574 148.16 15.6423 147.69 15.8838C147.221 16.1253 146.704 16.2461 146.139 16.2461C145.46 16.2461 144.904 16.041 144.471 15.6309C144.042 15.2161 143.828 14.6989 143.828 14.0791C143.828 13.4001 144.04 12.8737 144.464 12.5C144.888 12.1263 145.444 11.8962 146.132 11.8096L148.094 11.5635ZM152.742 12.4248C152.742 13.2087 152.909 13.8649 153.241 14.3936C153.574 14.9222 154.107 15.1865 154.841 15.1865C155.41 15.1865 155.878 14.9427 156.242 14.4551C156.611 13.9629 156.796 13.2588 156.796 12.3428C156.796 11.4176 156.607 10.734 156.229 10.292C155.85 9.84538 155.383 9.62207 154.827 9.62207C154.207 9.62207 153.704 9.85905 153.316 10.333C152.934 10.807 152.742 11.5042 152.742 12.4248ZM154.595 8.54883C155.155 8.54883 155.625 8.66732 156.003 8.9043C156.222 9.04102 156.47 9.28027 156.748 9.62207V5.92383H157.931V16H156.823V14.9814C156.536 15.4326 156.197 15.7585 155.805 15.959C155.413 16.1595 154.964 16.2598 154.458 16.2598C153.642 16.2598 152.936 15.918 152.339 15.2344C151.742 14.5462 151.443 13.6325 151.443 12.4932C151.443 11.4268 151.715 10.5039 152.257 9.72461C152.804 8.94076 153.583 8.54883 154.595 8.54883ZM160.535 12.4248C160.535 13.2087 160.701 13.8649 161.034 14.3936C161.367 14.9222 161.9 15.1865 162.634 15.1865C163.203 15.1865 163.671 14.9427 164.035 14.4551C164.404 13.9629 164.589 13.2588 164.589 12.3428C164.589 11.4176 164.4 10.734 164.021 10.292C163.643 9.84538 163.176 9.62207 162.62 9.62207C162 9.62207 161.497 9.85905 161.109 10.333C160.727 10.807 160.535 11.5042 160.535 12.4248ZM162.388 8.54883C162.948 8.54883 163.418 8.66732 163.796 8.9043C164.015 9.04102 164.263 9.28027 164.541 9.62207V5.92383H165.724V16H164.616V14.9814C164.329 15.4326 163.99 15.7585 163.598 15.959C163.206 16.1595 162.757 16.2598 162.251 16.2598C161.435 16.2598 160.729 15.918 160.132 15.2344C159.535 14.5462 159.236 13.6325 159.236 12.4932C159.236 11.4268 159.507 10.5039 160.05 9.72461C160.597 8.94076 161.376 8.54883 162.388 8.54883ZM167.583 8.67871H168.752V9.94336C168.848 9.69727 169.082 9.39876 169.456 9.04785C169.83 8.69238 170.26 8.51465 170.748 8.51465C170.771 8.51465 170.81 8.51693 170.864 8.52148C170.919 8.52604 171.012 8.53516 171.145 8.54883V9.84766C171.072 9.83398 171.003 9.82487 170.939 9.82031C170.88 9.81576 170.814 9.81348 170.741 9.81348C170.121 9.81348 169.645 10.014 169.312 10.415C168.98 10.8115 168.813 11.2695 168.813 11.7891V16H167.583V8.67871ZM175.26 8.51465C175.779 8.51465 176.283 8.6377 176.771 8.88379C177.258 9.12533 177.63 9.43978 177.885 9.82715C178.131 10.1963 178.295 10.627 178.377 11.1191C178.45 11.4564 178.486 11.9941 178.486 12.7324H173.12C173.143 13.4753 173.318 14.0723 173.646 14.5234C173.975 14.9701 174.483 15.1934 175.171 15.1934C175.813 15.1934 176.326 14.9814 176.709 14.5576C176.928 14.3115 177.083 14.0267 177.174 13.7031H178.384C178.352 13.972 178.245 14.2728 178.062 14.6055C177.885 14.9336 177.684 15.2025 177.461 15.4121C177.087 15.7767 176.625 16.0228 176.073 16.1504C175.777 16.2233 175.442 16.2598 175.068 16.2598C174.157 16.2598 173.384 15.9294 172.751 15.2686C172.118 14.6032 171.801 13.6735 171.801 12.4795C171.801 11.3037 172.12 10.349 172.758 9.61523C173.396 8.88151 174.23 8.51465 175.26 8.51465ZM177.222 11.7549C177.172 11.2217 177.055 10.7956 176.873 10.4766C176.536 9.88411 175.973 9.58789 175.185 9.58789C174.619 9.58789 174.146 9.79297 173.763 10.2031C173.38 10.6087 173.177 11.126 173.154 11.7549H177.222ZM180.735 13.7031C180.772 14.1133 180.874 14.4277 181.043 14.6465C181.353 15.043 181.891 15.2412 182.656 15.2412C183.112 15.2412 183.513 15.1432 183.859 14.9473C184.206 14.7467 184.379 14.4391 184.379 14.0244C184.379 13.71 184.24 13.4707 183.962 13.3066C183.784 13.2064 183.433 13.0902 182.909 12.958L181.932 12.7119C181.307 12.557 180.847 12.3838 180.551 12.1924C180.022 11.8597 179.758 11.3994 179.758 10.8115C179.758 10.1188 180.006 9.55827 180.503 9.12988C181.004 8.7015 181.676 8.4873 182.52 8.4873C183.622 8.4873 184.418 8.81087 184.905 9.45801C185.211 9.86816 185.359 10.3102 185.35 10.7842H184.188C184.165 10.5062 184.067 10.2533 183.894 10.0254C183.611 9.70182 183.121 9.54004 182.424 9.54004C181.959 9.54004 181.606 9.62891 181.364 9.80664C181.127 9.98438 181.009 10.2191 181.009 10.5107C181.009 10.8298 181.166 11.085 181.48 11.2764C181.663 11.3903 181.932 11.4906 182.287 11.5771L183.101 11.7754C183.985 11.9896 184.577 12.1969 184.878 12.3975C185.356 12.7119 185.596 13.2064 185.596 13.8809C185.596 14.5326 185.347 15.0954 184.851 15.5693C184.358 16.0433 183.606 16.2803 182.595 16.2803C181.506 16.2803 180.733 16.0342 180.277 15.542C179.826 15.0452 179.585 14.4323 179.553 13.7031H180.735ZM187.735 13.7031C187.772 14.1133 187.874 14.4277 188.043 14.6465C188.353 15.043 188.891 15.2412 189.656 15.2412C190.112 15.2412 190.513 15.1432 190.859 14.9473C191.206 14.7467 191.379 14.4391 191.379 14.0244C191.379 13.71 191.24 13.4707 190.962 13.3066C190.784 13.2064 190.433 13.0902 189.909 12.958L188.932 12.7119C188.307 12.557 187.847 12.3838 187.551 12.1924C187.022 11.8597 186.758 11.3994 186.758 10.8115C186.758 10.1188 187.006 9.55827 187.503 9.12988C188.004 8.7015 188.676 8.4873 189.52 8.4873C190.622 8.4873 191.418 8.81087 191.905 9.45801C192.211 9.86816 192.359 10.3102 192.35 10.7842H191.188C191.165 10.5062 191.067 10.2533 190.894 10.0254C190.611 9.70182 190.121 9.54004 189.424 9.54004C188.959 9.54004 188.606 9.62891 188.364 9.80664C188.127 9.98438 188.009 10.2191 188.009 10.5107C188.009 10.8298 188.166 11.085 188.48 11.2764C188.663 11.3903 188.932 11.4906 189.287 11.5771L190.101 11.7754C190.985 11.9896 191.577 12.1969 191.878 12.3975C192.356 12.7119 192.596 13.2064 192.596 13.8809C192.596 14.5326 192.347 15.0954 191.851 15.5693C191.358 16.0433 190.606 16.2803 189.595 16.2803C188.506 16.2803 187.733 16.0342 187.277 15.542C186.826 15.0452 186.585 14.4323 186.553 13.7031H187.735Z" fill="#4F4F4F"/>
<rect x="0.5" y="1.5" width="19" height="19" stroke="#BDBDBD"/>
</svg>
