<svg width="129" height="28" viewBox="0 0 129 28" fill="none" xmlns="http://www.w3.org/2000/svg">
<path d="M1.76136 21V6.45455H3.52273V12.9318H11.2784V6.45455H13.0398V21H11.2784V14.4943H3.52273V21H1.76136ZM20.7706 21.2273C19.7857 21.2273 18.9216 20.9929 18.1783 20.5241C17.4396 20.0554 16.862 19.3996 16.4453 18.5568C16.0334 17.714 15.8274 16.7292 15.8274 15.6023C15.8274 14.4659 16.0334 13.474 16.4453 12.6264C16.862 11.7789 17.4396 11.1207 18.1783 10.652C18.9216 10.1832 19.7857 9.94886 20.7706 9.94886C21.7554 9.94886 22.6172 10.1832 23.3558 10.652C24.0992 11.1207 24.6768 11.7789 25.0888 12.6264C25.5054 13.474 25.7138 14.4659 25.7138 15.6023C25.7138 16.7292 25.5054 17.714 25.0888 18.5568C24.6768 19.3996 24.0992 20.0554 23.3558 20.5241C22.6172 20.9929 21.7554 21.2273 20.7706 21.2273ZM20.7706 19.7216C21.5187 19.7216 22.1342 19.5298 22.6172 19.1463C23.1001 18.7628 23.4576 18.2585 23.6896 17.6335C23.9216 17.0085 24.0376 16.3314 24.0376 15.6023C24.0376 14.8731 23.9216 14.1937 23.6896 13.5639C23.4576 12.9342 23.1001 12.4252 22.6172 12.0369C22.1342 11.6487 21.5187 11.4545 20.7706 11.4545C20.0225 11.4545 19.407 11.6487 18.924 12.0369C18.4411 12.4252 18.0836 12.9342 17.8516 13.5639C17.6196 14.1937 17.5036 14.8731 17.5036 15.6023C17.5036 16.3314 17.6196 17.0085 17.8516 17.6335C18.0836 18.2585 18.4411 18.7628 18.924 19.1463C19.407 19.5298 20.0225 19.7216 20.7706 19.7216ZM28.2724 21V10.0909H29.8917V11.7955H30.0337C30.261 11.2131 30.628 10.7609 31.1346 10.4389C31.6412 10.1122 32.2496 9.94886 32.9599 9.94886C33.6796 9.94886 34.2785 10.1122 34.7567 10.4389C35.2397 10.7609 35.6161 11.2131 35.886 11.7955H35.9996C36.279 11.232 36.698 10.7846 37.2567 10.4531C37.8155 10.117 38.4854 9.94886 39.2667 9.94886C40.2421 9.94886 41.0399 10.2543 41.6602 10.8651C42.2804 11.4711 42.5906 12.4157 42.5906 13.6989V21H40.9144V13.6989C40.9144 12.8939 40.6942 12.3187 40.2539 11.973C39.8136 11.6274 39.2951 11.4545 38.6985 11.4545C37.9315 11.4545 37.3372 11.6866 36.9158 12.1506C36.4944 12.6098 36.2837 13.1922 36.2837 13.8977V21H34.5792V13.5284C34.5792 12.9081 34.378 12.4086 33.9755 12.0298C33.573 11.6463 33.0546 11.4545 32.4201 11.4545C31.9845 11.4545 31.5773 11.5705 31.1985 11.8026C30.8245 12.0346 30.5214 12.3565 30.2894 12.7685C30.0621 13.1757 29.9485 13.6468 29.9485 14.1818V21H28.2724ZM50.229 21.2273C49.1779 21.2273 48.2712 20.9953 47.5089 20.5312C46.7513 20.0625 46.1665 19.4091 45.7546 18.571C45.3474 17.7282 45.1438 16.7481 45.1438 15.6307C45.1438 14.5133 45.3474 13.5284 45.7546 12.6761C46.1665 11.8191 46.7395 11.1515 47.4734 10.6733C48.212 10.1903 49.0737 9.94886 50.0586 9.94886C50.6268 9.94886 51.1879 10.0436 51.7418 10.233C52.2958 10.4223 52.8001 10.7301 53.2546 11.1562C53.7092 11.5777 54.0714 12.1364 54.3413 12.8324C54.6112 13.5284 54.7461 14.3854 54.7461 15.4034V16.1136H46.337V14.6648H53.0415C53.0415 14.0492 52.9184 13.5 52.6722 13.017C52.4308 12.5341 52.0851 12.1529 51.6353 11.8736C51.1902 11.5942 50.6647 11.4545 50.0586 11.4545C49.391 11.4545 48.8133 11.6203 48.3256 11.9517C47.8427 12.2784 47.471 12.7045 47.2106 13.2301C46.9502 13.7557 46.82 14.3191 46.82 14.9205V15.8864C46.82 16.7102 46.962 17.4086 47.2461 17.9815C47.5349 18.5497 47.935 18.983 48.4464 19.2812C48.9577 19.5748 49.552 19.7216 50.229 19.7216C50.6694 19.7216 51.0671 19.66 51.4222 19.5369C51.7821 19.4091 52.0922 19.2197 52.3526 18.9688C52.613 18.7131 52.8143 18.3958 52.9563 18.017L54.5756 18.4716C54.4052 19.0208 54.1187 19.5038 53.7163 19.9205C53.3138 20.3324 52.8166 20.6544 52.2248 20.8864C51.6329 21.1136 50.9677 21.2273 50.229 21.2273Z" fill="white"/>
<path d="M89.7159 10.0909C89.6307 9.37121 89.285 8.8125 88.679 8.41477C88.0729 8.01705 87.3295 7.81818 86.4489 7.81818C85.8049 7.81818 85.2415 7.92235 84.7585 8.13068C84.2803 8.33901 83.9063 8.62547 83.6364 8.99006C83.3712 9.35464 83.2386 9.76894 83.2386 10.233C83.2386 10.6212 83.331 10.955 83.5156 11.2344C83.705 11.509 83.9465 11.7386 84.2401 11.9233C84.5336 12.1032 84.8414 12.2524 85.1634 12.3707C85.4853 12.4844 85.7812 12.5767 86.0511 12.6477L87.5284 13.0455C87.9072 13.1449 88.3286 13.2822 88.7926 13.4574C89.2614 13.6326 89.7088 13.8717 90.1349 14.1747C90.5658 14.473 90.9209 14.8565 91.2003 15.3253C91.4796 15.794 91.6193 16.3693 91.6193 17.0511C91.6193 17.8371 91.4134 18.5473 91.0014 19.1818C90.5942 19.8163 89.9976 20.3205 89.2116 20.6946C88.4304 21.0687 87.4811 21.2557 86.3636 21.2557C85.322 21.2557 84.42 21.0876 83.6577 20.7514C82.9001 20.4152 82.3035 19.9465 81.8679 19.3452C81.437 18.7438 81.1932 18.0455 81.1364 17.25H82.9545C83.0019 17.7992 83.1866 18.2538 83.5085 18.6136C83.8352 18.9687 84.2472 19.2339 84.7443 19.4091C85.2462 19.5795 85.786 19.6648 86.3636 19.6648C87.036 19.6648 87.6397 19.5559 88.1747 19.3381C88.7098 19.1155 89.1335 18.8078 89.446 18.4148C89.7585 18.017 89.9148 17.553 89.9148 17.0227C89.9148 16.5398 89.7798 16.1468 89.5099 15.8438C89.2401 15.5407 88.8849 15.2945 88.4446 15.1051C88.0043 14.9157 87.5284 14.75 87.017 14.608L85.2273 14.0966C84.0909 13.7699 83.1913 13.3035 82.5284 12.6974C81.8655 12.0914 81.5341 11.2983 81.5341 10.3182C81.5341 9.50379 81.7543 8.79356 82.1946 8.1875C82.6397 7.5767 83.2363 7.10322 83.9844 6.76705C84.7372 6.42614 85.5777 6.25568 86.5057 6.25568C87.4432 6.25568 88.2765 6.42377 89.0057 6.75994C89.7348 7.09138 90.3125 7.54593 90.7386 8.12358C91.1695 8.70123 91.3968 9.35701 91.4205 10.0909H89.7159ZM95.9641 14.4375V21H94.288V6.45455H95.9641V11.7955H96.1062C96.3619 11.232 96.7454 10.7846 97.2567 10.4531C97.7728 10.117 98.4594 9.94886 99.3164 9.94886C100.06 9.94886 100.711 10.098 101.27 10.3963C101.828 10.6899 102.261 11.142 102.569 11.7528C102.882 12.3589 103.038 13.1307 103.038 14.0682V21H101.362V14.1818C101.362 13.3153 101.137 12.6454 100.687 12.1719C100.242 11.6937 99.6242 11.4545 98.8335 11.4545C98.2842 11.4545 97.7918 11.5705 97.3562 11.8026C96.9253 12.0346 96.5844 12.3731 96.3335 12.8182C96.0872 13.2633 95.9641 13.803 95.9641 14.4375ZM110.536 21.2273C109.551 21.2273 108.687 20.9929 107.944 20.5241C107.205 20.0554 106.628 19.3996 106.211 18.5568C105.799 17.714 105.593 16.7292 105.593 15.6023C105.593 14.4659 105.799 13.474 106.211 12.6264C106.628 11.7789 107.205 11.1207 107.944 10.652C108.687 10.1832 109.551 9.94886 110.536 9.94886C111.521 9.94886 112.383 10.1832 113.121 10.652C113.865 11.1207 114.442 11.7789 114.854 12.6264C115.271 13.474 115.479 14.4659 115.479 15.6023C115.479 16.7292 115.271 17.714 114.854 18.5568C114.442 19.3996 113.865 20.0554 113.121 20.5241C112.383 20.9929 111.521 21.2273 110.536 21.2273ZM110.536 19.7216C111.284 19.7216 111.9 19.5298 112.383 19.1463C112.866 18.7628 113.223 18.2585 113.455 17.6335C113.687 17.0085 113.803 16.3314 113.803 15.6023C113.803 14.8731 113.687 14.1937 113.455 13.5639C113.223 12.9342 112.866 12.4252 112.383 12.0369C111.9 11.6487 111.284 11.4545 110.536 11.4545C109.788 11.4545 109.173 11.6487 108.69 12.0369C108.207 12.4252 107.849 12.9342 107.617 13.5639C107.385 14.1937 107.269 14.8731 107.269 15.6023C107.269 16.3314 107.385 17.0085 107.617 17.6335C107.849 18.2585 108.207 18.7628 108.69 19.1463C109.173 19.5298 109.788 19.7216 110.536 19.7216ZM118.038 25.0909V10.0909H119.657V11.8239H119.856C119.979 11.6345 120.15 11.393 120.368 11.0994C120.59 10.8011 120.907 10.536 121.319 10.304C121.736 10.0672 122.299 9.94886 123.01 9.94886C123.928 9.94886 124.738 10.1785 125.439 10.6378C126.139 11.0971 126.686 11.7481 127.079 12.5909C127.472 13.4337 127.669 14.428 127.669 15.5739C127.669 16.7292 127.472 17.7306 127.079 18.5781C126.686 19.4209 126.142 20.0743 125.446 20.5384C124.75 20.9976 123.947 21.2273 123.038 21.2273C122.337 21.2273 121.776 21.1113 121.355 20.8793C120.933 20.6425 120.609 20.375 120.382 20.0767C120.154 19.7737 119.979 19.5227 119.856 19.3239H119.714V25.0909H118.038ZM119.686 15.5455C119.686 16.3693 119.806 17.0961 120.048 17.7259C120.289 18.3509 120.642 18.8409 121.106 19.196C121.57 19.5464 122.138 19.7216 122.811 19.7216C123.511 19.7216 124.096 19.5369 124.565 19.1676C125.038 18.7936 125.394 18.2917 125.63 17.6619C125.872 17.0275 125.993 16.322 125.993 15.5455C125.993 14.7784 125.874 14.0871 125.637 13.4716C125.405 12.8513 125.053 12.3613 124.579 12.0014C124.11 11.6368 123.521 11.4545 122.811 11.4545C122.129 11.4545 121.556 11.6274 121.092 11.973C120.628 12.3139 120.278 12.7921 120.041 13.4077C119.804 14.0185 119.686 14.7311 119.686 15.5455Z" fill="#FF9F0D"/>
</svg>
